<?xml version="1.0" encoding="UTF-8" standalone="no"?>
<!-- Created with Inkscape (http://www.inkscape.org/) -->

<svg
   xmlns:dc="http://purl.org/dc/elements/1.1/"
   xmlns:cc="http://creativecommons.org/ns#"
   xmlns:rdf="http://www.w3.org/1999/02/22-rdf-syntax-ns#"
   xmlns:svg="http://www.w3.org/2000/svg"
   xmlns="http://www.w3.org/2000/svg"
   xmlns:sodipodi="http://sodipodi.sourceforge.net/DTD/sodipodi-0.dtd"
   xmlns:inkscape="http://www.inkscape.org/namespaces/inkscape"
   version="1.1"
   id="svg2"
   xml:space="preserve"
   width="454.06668"
   height="438.32001"
   viewBox="0 0 454.06668 438.32001"
   sodipodi:docname="shenandoah_joe.svg"
   inkscape:version="0.92.5 (2060ec1f9f, 2020-04-08)"><metadata
     id="metadata8"><rdf:RDF><cc:Work
         rdf:about=""><dc:format>image/svg+xml</dc:format><dc:type
           rdf:resource="http://purl.org/dc/dcmitype/StillImage" /><dc:title></dc:title></cc:Work></rdf:RDF></metadata><defs
     id="defs6" /><sodipodi:namedview
     pagecolor="#ffffff"
     bordercolor="#666666"
     borderopacity="1"
     objecttolerance="10"
     gridtolerance="10"
     guidetolerance="10"
     inkscape:pageopacity="0"
     inkscape:pageshadow="2"
     inkscape:window-width="1421"
     inkscape:window-height="1019"
     id="namedview4"
     showgrid="false"
     inkscape:zoom="0.53841941"
     inkscape:cx="227.03334"
     inkscape:cy="219.16"
     inkscape:window-x="373"
     inkscape:window-y="289"
     inkscape:window-maximized="0"
     inkscape:current-layer="g10" /><g
     id="g10"
     inkscape:groupmode="layer"
     inkscape:label="ink_ext_XXXXXX"
     transform="matrix(1.3333333,0,0,-1.3333333,0,438.32)"><g
       id="g12"
       transform="scale(0.1)"><path
         d="m 820.879,495.309 c -2.031,0 -4.098,-0.071 -6.137,-0.071 -108.472,0 -197.004,85.141 -202.379,192.262 H 2707.6 c -5.37,-107.121 -93.9,-192.262 -202.36,-192.262 -2.09,0 -4.1,0.071 -6.13,0.071 H 820.879"
         style="fill:#2c49a0;fill-opacity:1;fill-rule:nonzero;stroke:none"
         id="path14"
         inkscape:connector-curvature="0" /><path
         d="m 759.605,1940.91 c 72.969,385.15 364.265,690.34 736.445,774.65 -33.32,-86.27 -60.27,-170.9 -60.27,-266.41 0,-150.23 90.27,-231.47 84.17,-393.36 -1.72,-45.47 -7.04,-80.12 -16.67,-114.88 z m 1198.725,763.3 c 350.5,-97.92 621.46,-393.81 691.44,-763.3 h -678.61 c 19.63,65.34 31.66,128.8 32.05,212.13 0.72,143.78 -90.39,215.08 -84.98,358.74 2.85,75.49 18.86,134.58 40.1,192.43"
         style="fill:#f7eb59;fill-opacity:1;fill-rule:nonzero;stroke:none"
         id="path16"
         inkscape:connector-curvature="0" /><path
         d="m 1657.09,2822.14 h -45.12 c -49.22,-126.07 -102.5,-238.75 -102.5,-372.99 0,-150.23 90.3,-231.47 84.16,-393.36 -3.1,-82.48 -18.03,-129.41 -49.2,-205.82 h 48.03 c 36.97,103.35 62.04,182.4 62.58,303.07 0.73,143.78 -90.4,215.04 -84.99,358.74 4.74,125.63 45.99,205.83 87.04,310.36"
         style="fill:#2c49a0;fill-opacity:1;fill-rule:evenodd;stroke:none"
         id="path18"
         inkscape:connector-curvature="0" /><path
         d="M 1798.64,2822.14 H 1753.5 C 1704.32,2696.07 1651,2583.39 1651,2449.15 c 0,-150.23 90.29,-231.47 84.18,-393.36 -3.09,-82.48 -18.05,-129.41 -49.22,-205.82 h 48.01 c 37.01,103.35 62.03,182.4 62.58,303.07 0.78,143.78 -90.39,215.04 -85,358.74 4.78,125.63 45.99,205.83 87.09,310.36"
         style="fill:#2c49a0;fill-opacity:1;fill-rule:evenodd;stroke:none"
         id="path20"
         inkscape:connector-curvature="0" /><path
         d="m 1940.16,2822.14 h -45.12 c -49.21,-126.07 -102.5,-238.75 -102.5,-373 0,-150.22 90.26,-231.46 84.16,-393.35 -3.1,-82.48 -18.02,-129.41 -49.21,-205.82 h 48.02 c 36.98,103.35 62.03,182.4 62.64,303.07 0.68,143.78 -90.43,215.04 -85.06,358.74 4.75,125.63 45.98,205.83 87.07,310.36"
         style="fill:#2c49a0;fill-opacity:1;fill-rule:evenodd;stroke:none"
         id="path22"
         inkscape:connector-curvature="0" /><path
         d="m 741.93,1753.66 c 0,64.01 5.883,126.61 17.168,187.25 h 4.058 163.653 1717.241 5.47 c 11.21,-60.64 13.71,-123.24 13.71,-187.25 0,-3.51 -0.02,-7.01 -0.02,-10.56 35.31,13.68 73.69,21.18 113.89,21.18 174.53,0 315.95,-141.46 315.95,-316.01 0,-174.49 -141.42,-315.99 -315.95,-315.99 -99.93,0 -188.93,46.39 -246.88,118.79 -167.17,-291.39 -475.2,-486.832 -827.64,-486.832 -530.56,0 -960.65,443.022 -960.65,989.422 z m 181.531,-2.12 c 34.019,-456.5 369.369,-814.88 778.009,-814.88 408.69,0 744,358.37 778.01,814.88 z M 2646.26,1448.27 c 0,-72.21 58.51,-130.85 130.84,-130.85 72.24,0 130.82,58.64 130.82,130.85 0,72.27 -58.58,130.86 -130.82,130.86 -72.33,0 -130.84,-58.59 -130.84,-130.86"
         style="fill:#2c49a0;fill-opacity:1;fill-rule:nonzero;stroke:none"
         id="path24"
         inkscape:connector-curvature="0" /><path
         d="m 318.93,1985.38 1.554,63.44 82.368,-2.01 -1.547,-63.8 c -26.012,-16.1 -39.282,-35.3 -39.836,-57.62 -0.52,-21.57 6.922,-32.54 22.285,-32.91 10.371,-0.25 17.687,8.51 21.922,26.32 3.387,19.47 6.781,38.97 10.168,58.45 5.578,25.61 14.324,44.64 26.304,57.06 16.618,17.24 36.176,25.6 58.676,25.04 26.086,-0.63 46.739,-10.92 61.969,-30.86 14.203,-18.58 20.973,-41.58 20.309,-68.98 -0.383,-15.8 -3.157,-29.66 -8.278,-41.58 -4.105,-9.6 -11.547,-21.46 -22.32,-35.57 l 21.992,-0.54 -1.523,-62.31 -87.473,2.13 1.574,64.44 c 26.793,18.58 40.461,39.45 41.016,62.6 0.207,7.93 -1.453,14.83 -4.965,20.69 -4.125,6.87 -9.793,10.41 -17.016,10.58 -11.269,0.28 -19.398,-9.37 -24.418,-28.89 -3.828,-20.73 -7.668,-41.5 -11.496,-62.31 -5.672,-26.55 -14.285,-45.45 -25.836,-56.7 -13.281,-12.89 -28.933,-19.11 -46.933,-18.67 -27.317,0.67 -48.809,10.13 -64.52,28.41 -15.371,17.75 -22.718,40.82 -22.031,69.16 0.547,22.38 9.383,47.05 26.523,73.98 l -18.468,0.45"
         style="fill:#2c49a0;fill-opacity:1;fill-rule:nonzero;stroke:none"
         id="path26"
         inkscape:connector-curvature="0" /><path
         d="m 532.809,2117.96 -142.832,40.77 -6.618,-23.16 -51.683,14.76 33.816,118.44 51.68,-14.75 -6.567,-22.98 38.774,-11.06 21.512,75.37 -38.762,11.06 -6.559,-22.96 -51.679,14.75 33.941,118.9 51.68,-14.76 -6.578,-23.05 142.847,-40.78 6.574,23.04 53.833,-15.37 -33.942,-118.88 -53.832,15.36 6.559,22.98 -50.973,14.54 -21.508,-75.37 50.957,-14.55 6.555,22.97 53.844,-15.36 -33.813,-118.44 -53.84,15.37 6.614,23.16"
         style="fill:#2c49a0;fill-opacity:1;fill-rule:nonzero;stroke:none"
         id="path28"
         inkscape:connector-curvature="0" /><path
         d="m 631.699,2417.35 -127.793,75.73 -13.109,-22.11 -46.234,27.4 128.191,216.31 79.629,-47.19 -26.598,-44.88 -40.551,7.71 -42.894,-72.39 33.387,-19.79 27.808,46.91 50.098,-29.67 -27.817,-46.93 44.313,-26.26 42.894,72.39 -32.648,35.67 26.594,44.88 87.976,-52.13 -128.191,-216.32 -48.164,28.55 13.109,22.12"
         style="fill:#2c49a0;fill-opacity:1;fill-rule:nonzero;stroke:none"
         id="path30"
         inkscape:connector-curvature="0" /><path
         d="m 697.484,2856.77 151.817,-35.6 -55.18,55.69 -17.484,-17.33 -37.844,38.17 85.711,84.93 37.824,-38.18 -16.562,-16.41 143.964,-145.3 -45.472,-45.05 -171.461,36.6 64.371,-64.95 17.734,17.58 38.887,-39.25 -85.621,-84.82 -38.879,39.23 16.399,16.25 -105.083,106.05 -16.39,-16.25 -37.828,38.17 71.097,70.47"
         style="fill:#2c49a0;fill-opacity:1;fill-rule:nonzero;stroke:none"
         id="path32"
         inkscape:connector-curvature="0" /><path
         d="m 1084.5,3000.39 -54.37,50.61 17.08,-72.29 z m -99.035,-147.78 19.515,11.35 -33.597,152.59 -18.867,-10.96 -26.887,46.24 159.791,92.92 26.9,-46.25 -18.76,-10.9 115.88,-104.76 19.43,11.3 27.75,-47.75 -107.24,-62.35 -27.75,47.75 21.04,12.23 -24.49,22.9 -58.65,-34.11 7.89,-32.54 21.3,12.38 27.76,-47.76 -103.26,-60.03 -27.755,47.75"
         style="fill:#2c49a0;fill-opacity:1;fill-rule:nonzero;stroke:none"
         id="path34"
         inkscape:connector-curvature="0" /><path
         d="m 1305.38,3229.48 114.1,-106.28 -20.25,75.74 -23.78,-6.36 -13.88,51.93 116.56,31.14 13.88,-51.91 -22.54,-6.03 52.8,-197.6 -61.84,-16.52 -130.63,116.91 23.61,-88.34 24.11,6.46 14.27,-53.38 -116.44,-31.12 -14.25,53.37 22.29,5.96 -38.53,144.23 -22.31,-5.95 -13.88,51.93 96.71,25.82"
         style="fill:#2c49a0;fill-opacity:1;fill-rule:nonzero;stroke:none"
         id="path36"
         inkscape:connector-curvature="0" /><path
         d="m 1682.74,3083.94 c 60.6,-1.06 91.03,24.98 91.23,78.11 0.12,29.64 -16.45,51.61 -49.69,65.92 -8.63,3.68 -23.94,5.42 -45.99,5.28 l -7.8,0.03 -0.58,-149.29 z m -88.41,0.34 0.59,149.29 -24.45,0.09 0.2,53.75 122.15,-0.48 c 19.9,-0.07 36.01,-0.99 48.4,-2.74 33.41,-4.76 59.74,-18.49 78.96,-41.19 18.99,-22.29 28.4,-49.95 28.28,-82.96 -0.13,-35.12 -11.07,-64.39 -32.83,-87.83 -21.76,-23.43 -50.59,-37.24 -86.56,-41.39 -12.87,-1.5 -29.26,-2.19 -49.07,-2.11 l -110.33,0.42 0.21,55.24 24.45,-0.09"
         style="fill:#2c49a0;fill-opacity:1;fill-rule:nonzero;stroke:none"
         id="path38"
         inkscape:connector-curvature="0" /><path
         d="m 1975.67,3129.36 c -7.36,-29.62 1.07,-52.54 25.25,-68.75 7.7,-5.22 14.01,-8.5 18.93,-9.84 17.75,-4.87 34.3,-2.75 49.61,6.34 14.96,8.95 24.8,22.06 29.53,39.37 5.18,18.95 3.32,35.76 -5.61,50.43 -8.86,14.68 -23.06,24.7 -42.48,30.02 -15.86,4.33 -31.25,1.87 -46.23,-7.36 -14.96,-9.22 -24.35,-21.55 -28.12,-36.92 z m -57.4,52.72 c 27.18,46.4 69.18,68.3 125.93,65.67 13.4,-0.65 22.76,-1.7 27.99,-3.13 39.12,-10.71 68.21,-32.67 87.29,-65.87 19.08,-33.21 23.45,-68.73 13.08,-106.57 -9.7,-35.45 -31.44,-61.99 -65.25,-79.66 -33.32,-17.55 -68.34,-21.3 -105,-11.26 -39.2,10.73 -68.14,32 -86.84,63.79 -18.69,31.79 -22.83,66.61 -12.48,104.46 2.29,8.35 7.37,19.2 15.28,32.57"
         style="fill:#2c49a0;fill-opacity:1;fill-rule:nonzero;stroke:none"
         id="path40"
         inkscape:connector-curvature="0" /><path
         d="m 2352.97,2983.38 16.9,72.34 -54.24,-50.76 z m -177.44,12.5 19.55,-11.3 115.73,105 -18.91,10.92 26.78,46.3 160.04,-92.47 -26.76,-46.31 -18.81,10.84 -33.28,-152.61 19.45,-11.23 -27.64,-47.84 -107.4,62.07 27.62,47.83 21.09,-12.18 7.7,32.62 -58.75,33.94 -24.32,-23.03 21.31,-12.31 -27.62,-47.83 -103.43,59.75 27.65,47.84"
         style="fill:#2c49a0;fill-opacity:1;fill-rule:nonzero;stroke:none"
         id="path42"
         inkscape:connector-curvature="0" /><path
         d="m 2464.71,2816.8 105.28,104.81 -16.98,17.06 38.09,37.92 86.87,-87.31 -38.08,-37.92 -16.84,16.94 -28.59,-28.43 55.29,-55.56 28.58,28.43 -16.84,16.94 38.09,37.91 87.22,-87.63 -38.1,-37.92 -16.9,16.99 -105.27,-104.8 16.87,-16.98 -39.66,-39.49 -87.23,87.63 39.67,39.49 16.87,-16.92 37.56,37.38 -55.29,55.55 -37.58,-37.38 16.87,-16.94 -39.68,-39.49 -86.9,87.31 39.69,39.49 16.99,-17.08"
         style="fill:#2c49a0;fill-opacity:1;fill-rule:nonzero;stroke:none"
         id="path44"
         inkscape:connector-curvature="0" /><path
         d="m 2702.9,2460.25 c 5.48,-0.18 15.35,3.43 29.59,10.82 l 141.38,73.35 -10.78,20.8 47.44,24.75 56.57,-109.1 -47.43,-24.74 -11.27,21.71 -147.75,-76.64 c -32.38,-16.8 -58.95,-22.11 -79.69,-15.91 -21.66,6.39 -40.9,26.28 -57.65,59.66 l -2.41,4.85 57.44,29.79 c 7.95,-12.73 16.14,-19.18 24.56,-19.34"
         style="fill:#2c49a0;fill-opacity:1;fill-rule:nonzero;stroke:none"
         id="path46"
         inkscape:connector-curvature="0" /><path
         d="m 2893.31,2317.24 c -29.09,-9.25 -44.2,-28.44 -45.36,-57.54 -0.43,-9.27 0.08,-16.35 1.51,-21.26 5.15,-17.68 15.6,-30.66 31.38,-38.96 15.45,-8.06 31.78,-9.58 48.99,-4.57 18.87,5.5 32.23,15.89 40.06,31.16 7.85,15.28 8.96,32.6 3.32,51.95 -4.57,15.75 -14.75,27.59 -30.45,35.52 -15.7,7.93 -31.1,9.48 -46.19,4.65 z m 14.88,76.46 c 53.77,1.14 94.41,-23.17 121.87,-72.91 6.47,-11.79 10.45,-20.29 11.98,-25.5 11.34,-38.93 7.87,-75.21 -10.45,-108.85 -18.28,-33.65 -46.27,-55.95 -83.97,-66.93 -35.25,-10.27 -69.28,-5.64 -101.99,13.9 -32.4,19.21 -53.93,47.08 -64.57,83.6 -11.35,39.02 -8.4,74.81 8.91,107.38 17.3,32.55 44.82,54.31 82.48,65.29 8.3,2.43 20.23,3.77 35.74,4.02"
         style="fill:#2c49a0;fill-opacity:1;fill-rule:nonzero;stroke:none"
         id="path48"
         inkscape:connector-curvature="0" /><path
         d="m 2884.18,2050.37 148.46,5.48 -0.96,25.71 53.72,1.98 9.29,-251.27 -92.5,-3.43 -1.91,52.14 38.26,15.47 -3.12,84.09 -38.79,-1.44 2.03,-54.51 -58.19,-2.16 -2.01,54.52 -51.46,-1.9 3.08,-84.09 46.78,-12.32 1.91,-52.14 -102.18,-3.78 -9.3,251.29 55.96,2.06 0.93,-25.7"
         style="fill:#2c49a0;fill-opacity:1;fill-rule:nonzero;stroke:none"
         id="path50"
         inkscape:connector-curvature="0" /><path
         d="m 834.582,636.379 c 9.379,9.23 21.313,13.832 35.793,13.832 19.391,0 33.563,-6.191 42.516,-18.531 4.941,-6.93 7.609,-13.879 7.972,-20.86 h -24.258 c -1.546,5.41 -3.527,9.489 -5.957,12.25 -4.328,4.899 -10.746,7.34 -19.246,7.34 -8.668,0 -15.488,-3.422 -20.488,-10.301 -4.996,-6.859 -7.492,-16.57 -7.492,-29.14 0,-12.571 2.625,-21.957 7.883,-28.239 5.273,-6.261 11.957,-9.39 20.078,-9.39 8.308,0 14.66,2.691 19.023,8.082 2.41,2.879 4.418,7.226 6.016,13.008 h 24.258 c -2.102,-12.2 -7.414,-22.129 -15.996,-29.77 -8.567,-7.66 -19.551,-11.469 -32.954,-11.469 -16.578,0 -29.605,5.161 -39.089,15.457 -9.493,10.372 -14.227,24.571 -14.227,42.633 0,19.52 5.391,34.539 16.168,45.098"
         style="fill:#ffffff;fill-opacity:1;fill-rule:nonzero;stroke:none"
         id="path52"
         inkscape:connector-curvature="0" /><path
         d="m 1023.61,563.219 c 5.7,6.832 8.55,16.519 8.55,29.14 0,12.551 -2.85,22.243 -8.55,29.071 -5.69,6.859 -13.37,10.3 -23.06,10.3 -9.691,0 -17.421,-3.41 -23.195,-10.242 -5.777,-6.84 -8.652,-16.547 -8.652,-29.129 0,-12.621 2.875,-22.308 8.652,-29.14 5.774,-6.84 13.504,-10.258 23.195,-10.258 9.69,0 17.37,3.418 23.06,10.258 z m 15.14,-17 c -8.82,-8.699 -21.59,-13.028 -38.27,-13.028 -16.71,0 -29.472,4.329 -38.289,13.028 -11.839,10.679 -17.753,26.062 -17.753,46.14 0,20.469 5.914,35.84 17.753,46.102 8.817,8.699 21.579,13.051 38.289,13.051 16.68,0 29.45,-4.352 38.27,-13.051 11.78,-10.262 17.66,-25.633 17.66,-46.102 0,-20.078 -5.88,-35.461 -17.66,-46.14"
         style="fill:#ffffff;fill-opacity:1;fill-rule:nonzero;stroke:none"
         id="path54"
         inkscape:connector-curvature="0" /><path
         d="m 1082.87,648.141 h 83.42 v -19.59 h -59.16 v -25.75 h 51.88 v -19.223 h -51.88 v -47.207 h -24.26 v 111.77"
         style="fill:#ffffff;fill-opacity:1;fill-rule:nonzero;stroke:none"
         id="path56"
         inkscape:connector-curvature="0" /><path
         d="m 1190.09,648.141 h 83.42 v -19.59 h -59.15 v -25.75 h 51.87 v -19.223 h -51.87 v -47.207 h -24.27 v 111.77"
         style="fill:#ffffff;fill-opacity:1;fill-rule:nonzero;stroke:none"
         id="path58"
         inkscape:connector-curvature="0" /><path
         d="m 1382.6,628.359 h -60.46 v -23.687 h 55.42 v -19.223 h -55.42 V 556.52 h 63.26 v -20.149 h -87.15 v 111.77 h 84.35 v -19.782"
         style="fill:#ffffff;fill-opacity:1;fill-rule:nonzero;stroke:none"
         id="path60"
         inkscape:connector-curvature="0" /><path
         d="m 1498.94,628.359 h -60.47 v -23.687 h 55.43 v -19.223 h -55.43 V 556.52 h 63.26 v -20.149 h -87.15 v 111.77 h 84.36 v -19.782"
         style="fill:#ffffff;fill-opacity:1;fill-rule:nonzero;stroke:none"
         id="path62"
         inkscape:connector-curvature="0" /><path
         d="m 1607.81,628.922 v -30.231 h 26.41 c 5.22,0 9.16,0.61 11.8,1.821 4.63,2.148 6.95,6.379 6.95,12.699 0,6.801 -2.24,11.371 -6.73,13.738 -2.52,1.313 -6.31,1.973 -11.35,1.973 z m 50.44,16.34 c 4.31,-1.75 7.95,-4.371 10.93,-7.813 2.49,-2.84 4.44,-5.961 5.88,-9.41 1.45,-3.43 2.17,-7.34 2.17,-11.738 0,-5.313 -1.4,-10.551 -4.14,-15.672 -2.77,-5.129 -7.36,-8.75 -13.75,-10.867 5.35,-2.082 9.14,-5.024 11.39,-8.821 2.22,-3.82 3.34,-9.66 3.34,-17.5 v -7.511 c 0,-5.098 0.19,-8.551 0.62,-10.371 0.63,-2.899 2.11,-5.02 4.42,-6.411 v -2.777 h -26.7 c -0.74,2.469 -1.27,4.469 -1.6,6 -0.63,3.117 -0.98,6.32 -1.04,9.617 l -0.16,10.41 c -0.09,7.102 -1.4,11.883 -3.86,14.243 -2.5,2.398 -7.17,3.578 -13.97,3.578 h -23.97 v -43.848 h -23.88 v 111.77 h 55.89 c 7.98,-0.141 14.13,-1.121 18.43,-2.879"
         style="fill:#ffffff;fill-opacity:1;fill-rule:nonzero;stroke:none"
         id="path64"
         inkscape:connector-curvature="0" /><path
         d="m 1783.54,563.219 c 5.68,6.832 8.54,16.519 8.54,29.14 0,12.539 -2.86,22.243 -8.54,29.071 -5.7,6.859 -13.4,10.3 -23.07,10.3 -9.7,0 -17.42,-3.41 -23.2,-10.242 -5.78,-6.84 -8.65,-16.547 -8.65,-29.129 0,-12.621 2.87,-22.308 8.65,-29.14 5.78,-6.84 13.5,-10.258 23.2,-10.258 9.67,0 17.37,3.418 23.07,10.258 z m 15.12,-17 c -8.81,-8.699 -21.58,-13.028 -38.28,-13.028 -16.68,0 -29.44,4.329 -38.27,13.028 -11.83,10.679 -17.75,26.062 -17.75,46.14 0,20.469 5.92,35.84 17.75,46.102 8.83,8.699 21.59,13.051 38.27,13.051 16.7,0 29.47,-4.352 38.28,-13.051 11.77,-10.262 17.67,-25.633 17.67,-46.102 0,-20.078 -5.9,-35.468 -17.67,-46.14"
         style="fill:#ffffff;fill-opacity:1;fill-rule:nonzero;stroke:none"
         id="path66"
         inkscape:connector-curvature="0" /><path
         d="m 1874.75,578.551 h 29.92 l -14.74,44.027 z m 1.7,69.59 h 27.52 l 41.27,-111.77 h -26.45 l -7.67,22.938 h -42.99 l -7.91,-22.938 h -25.45 l 41.68,111.77"
         style="fill:#ffffff;fill-opacity:1;fill-rule:nonzero;stroke:none"
         id="path68"
         inkscape:connector-curvature="0" /><path
         d="m 1985.81,570.891 c 0.74,-5.102 2.24,-8.891 4.43,-11.411 4.06,-4.589 11,-6.878 20.8,-6.878 5.88,0 10.66,0.609 14.34,1.816 6.95,2.312 10.45,6.621 10.45,12.941 0,3.672 -1.74,6.539 -5.16,8.532 -3.46,2 -8.87,3.711 -16.27,5.238 l -12.62,2.66 c -12.4,2.641 -20.94,5.492 -25.6,8.582 -7.89,5.16 -11.84,13.231 -11.84,24.199 0,10.051 3.83,18.371 11.52,25 7.7,6.629 19.01,9.942 33.89,9.942 12.44,0 23.07,-3.133 31.84,-9.383 8.79,-6.258 13.38,-15.301 13.83,-27.199 h -23.33 c -0.44,6.742 -3.59,11.531 -9.43,14.371 -3.92,1.859 -8.75,2.801 -14.55,2.801 -6.44,0 -11.56,-1.211 -15.41,-3.641 -3.87,-2.449 -5.76,-5.832 -5.76,-10.199 0,-3.981 1.87,-6.973 5.66,-8.953 2.44,-1.309 7.6,-2.868 15.53,-4.637 l 20.51,-4.621 c 8.98,-2.039 15.7,-4.742 20.13,-8.11 6.9,-5.269 10.38,-12.871 10.38,-22.832 0,-10.218 -4.13,-18.687 -12.37,-25.418 -8.22,-6.761 -19.86,-10.121 -34.9,-10.121 -15.33,0 -27.42,3.301 -36.21,9.95 -8.81,6.628 -13.18,15.75 -13.18,27.371 h 23.32"
         style="fill:#ffffff;fill-opacity:1;fill-rule:nonzero;stroke:none"
         id="path70"
         inkscape:connector-curvature="0" /><path
         d="m 2169.89,648.141 v -19.782 h -35.08 v -91.988 h -24.65 v 91.988 h -35.08 v 19.782 h 94.81"
         style="fill:#ffffff;fill-opacity:1;fill-rule:nonzero;stroke:none"
         id="path72"
         inkscape:connector-curvature="0" /><path
         d="m 2276.92,628.359 h -60.47 v -23.687 h 55.43 v -19.223 h -55.43 V 556.52 h 63.26 v -20.149 h -87.15 v 111.77 h 84.36 v -19.782"
         style="fill:#ffffff;fill-opacity:1;fill-rule:nonzero;stroke:none"
         id="path74"
         inkscape:connector-curvature="0" /><path
         d="m 2332.58,628.922 v -30.231 h 26.41 c 5.25,0 9.18,0.61 11.82,1.821 4.64,2.148 6.95,6.379 6.95,12.699 0,6.801 -2.25,11.371 -6.74,13.738 -2.54,1.313 -6.31,1.973 -11.35,1.973 z m 50.47,16.34 c 4.28,-1.762 7.93,-4.371 10.94,-7.813 2.46,-2.84 4.41,-5.961 5.86,-9.41 1.44,-3.43 2.15,-7.34 2.15,-11.738 0,-5.313 -1.35,-10.551 -4.14,-15.672 -2.78,-5.141 -7.35,-8.75 -13.73,-10.867 5.35,-2.082 9.14,-5.024 11.38,-8.821 2.21,-3.82 3.32,-9.66 3.32,-17.5 v -7.511 c 0,-5.098 0.22,-8.551 0.65,-10.371 0.62,-2.899 2.09,-5.02 4.39,-6.411 v -2.777 h -26.68 c -0.74,2.469 -1.29,4.469 -1.58,5.981 -0.66,3.136 -1.02,6.339 -1.05,9.636 l -0.16,10.41 c -0.1,7.102 -1.41,11.864 -3.87,14.243 -2.5,2.398 -7.15,3.578 -13.98,3.578 h -23.97 v -43.848 h -23.88 v 111.77 h 55.89 c 7.99,-0.141 14.15,-1.121 18.46,-2.879"
         style="fill:#ffffff;fill-opacity:1;fill-rule:nonzero;stroke:none"
         id="path76"
         inkscape:connector-curvature="0" /><path
         d="m 2450.98,570.891 c 0.74,-5.102 2.25,-8.891 4.45,-11.411 4.05,-4.589 10.98,-6.878 20.79,-6.878 5.87,0 10.66,0.609 14.33,1.816 6.97,2.312 10.45,6.621 10.45,12.941 0,3.672 -1.74,6.539 -5.17,8.532 -3.42,2 -8.85,3.711 -16.24,5.238 l -12.63,2.66 c -12.4,2.641 -20.94,5.492 -25.59,8.582 -7.91,5.16 -11.85,13.231 -11.85,24.199 0,10.051 3.84,18.371 11.52,25 7.7,6.629 18.98,9.942 33.91,9.942 12.42,0 23.02,-3.133 31.83,-9.383 8.77,-6.258 13.38,-15.301 13.81,-27.199 h -23.34 c -0.43,6.742 -3.57,11.531 -9.41,14.371 -3.91,1.859 -8.75,2.801 -14.53,2.801 -6.47,0 -11.61,-1.211 -15.45,-3.641 -3.85,-2.449 -5.77,-5.832 -5.77,-10.199 0,-3.981 1.9,-6.973 5.71,-8.953 2.4,-1.309 7.6,-2.868 15.51,-4.637 l 20.5,-4.621 c 8.99,-2.039 15.69,-4.742 20.16,-8.11 6.89,-5.269 10.35,-12.871 10.35,-22.832 0,-10.218 -4.14,-18.687 -12.36,-25.418 -8.24,-6.761 -19.85,-10.121 -34.9,-10.121 -15.36,0 -27.45,3.301 -36.22,9.95 -8.8,6.628 -13.18,15.75 -13.18,27.371 h 23.32"
         style="fill:#ffffff;fill-opacity:1;fill-rule:nonzero;stroke:none"
         id="path78"
         inkscape:connector-curvature="0" /><path
         d="M 79.1992,270.18 144.688,161.961 v 64.648 h -19.043 v 43.571 h 95.793 V 226.609 H 202.914 V 58.6094 H 152.031 L 75.7148,178.781 V 104.23 H 95.6797 V 58.6094 H 0 V 104.23 H 18.332 V 226.609 H 0 v 43.571 h 79.1992"
         style="fill:#2c49a0;fill-opacity:1;fill-rule:nonzero;stroke:none"
         id="path80"
         inkscape:connector-curvature="0" /><path
         d="m 304.914,111.719 c 5.219,-5.34 11.473,-8 18.762,-8 7.422,0 13.746,2.621 18.996,7.929 5.234,5.293 7.859,11.672 7.859,19.161 0,7.453 -2.508,13.98 -7.504,19.543 -5.023,5.539 -11.226,8.328 -18.652,8.328 -7.828,0 -14.336,-2.711 -19.492,-8.129 -5.184,-5.449 -7.77,-12.063 -7.77,-19.93 0,-7.301 2.614,-13.59 7.801,-18.902 z m -36.824,74.062 c 15.562,15.457 33.941,23.207 55.105,23.207 23.11,0 42.118,-7.449 57.059,-22.367 14.922,-14.902 22.414,-33.891 22.414,-57.012 0,-21 -7.617,-38.9176 -22.848,-53.8395 -15.234,-14.8984 -33.355,-22.3476 -54.328,-22.3476 -23.039,0 -42.148,7.0898 -57.351,21.289 -15.606,14.5508 -23.399,33.2501 -23.399,56.0981 0,21.171 7.778,39.5 23.348,54.972"
         style="fill:#2c49a0;fill-opacity:1;fill-rule:nonzero;stroke:none"
         id="path82"
         inkscape:connector-curvature="0" /><path
         d="m 429.242,204.352 h 13.551 v 44.57 h 54.547 v -44.57 h 15.332 V 159.719 H 497.34 V 114.91 c 0,-7.469 5.121,-11.191 15.332,-11.191 V 58.6094 l -36.719,0.2812 c -22.109,0.1875 -33.16,11.7383 -33.16,34.6211 v 66.2073 h -13.551 v 44.633"
         style="fill:#2c49a0;fill-opacity:1;fill-rule:nonzero;stroke:none"
         id="path84"
         inkscape:connector-curvature="0" /><path
         d="m 642.613,203.801 h 78.825 v -43.563 h -11.415 l 19.012,-42.297 20.695,42.297 h -11.179 v 43.563 h 74.121 V 160.238 H 801.523 L 744.77,45.1211 h 15.332 V 0 h -83.637 v 45.1211 h 17.027 l 7.653,15.4297 -47.383,99.6872 h -11.149 v 43.563"
         style="fill:#2c49a0;fill-opacity:1;fill-rule:nonzero;stroke:none"
         id="path86"
         inkscape:connector-curvature="0" /><path
         d="m 900.441,111.719 c 5.184,-5.34 11.446,-8 18.754,-8 7.422,0 13.754,2.621 18.993,7.929 5.23,5.293 7.859,11.672 7.859,19.161 0,7.453 -2.496,13.98 -7.52,19.543 -4.992,5.539 -11.218,8.328 -18.64,8.328 -7.824,0 -14.321,-2.711 -19.504,-8.129 -5.156,-5.449 -7.75,-12.063 -7.75,-19.93 0,-7.301 2.594,-13.59 7.808,-18.902 z m -36.851,74.062 c 15.578,15.457 33.941,23.207 55.137,23.207 23.074,0 42.097,-7.449 57.039,-22.367 14.941,-14.902 22.398,-33.891 22.398,-57.012 0,-21 -7.617,-38.9176 -22.848,-53.8395 -15.238,-14.8984 -33.339,-22.3476 -54.304,-22.3476 -23.032,0 -42.153,7.0898 -57.356,21.289 -15.605,14.5508 -23.402,33.2501 -23.402,56.0981 0,21.171 7.777,39.5 23.336,54.972"
         style="fill:#2c49a0;fill-opacity:1;fill-rule:nonzero;stroke:none"
         id="path88"
         inkscape:connector-curvature="0" /><path
         d="m 1097.96,204.32 v -78.511 c 0,-16.45 4.61,-24.688 13.81,-24.688 12.58,0 18.86,8.199 18.86,24.609 v 34.508 h -14 v 44.082 h 68.54 V 103.91 h 14.53 V 58.6094 h -69.07 v 17.1992 c -14.76,-13.8672 -29.75,-20.8398 -44.97,-20.8398 -29.25,0 -43.86,14.621 -43.86,43.8828 v 61.3864 h -13.85 v 44.082 h 70.01"
         style="fill:#2c49a0;fill-opacity:1;fill-rule:nonzero;stroke:none"
         id="path90"
         inkscape:connector-curvature="0" /><path
         d="m 1298.48,203.969 1.9,-21.59 c 1.45,7.07 4.98,13.019 10.59,17.832 5.61,4.828 11.99,7.211 19.18,7.211 8.22,0 15.47,-3.031 21.76,-9.102 6.25,-6.09 9.4,-13.191 9.4,-21.332 0,-8.648 -3.02,-15.867 -9.01,-21.617 -6.02,-5.73 -13.35,-8.621 -22.06,-8.621 -14.8,0 -24.76,7.879 -29.86,23.66 v -66.691 h 17.92 V 58.6094 h -85.54 v 45.1096 h 12.65 v 56.519 h -12.65 v 43.731 h 65.72"
         style="fill:#2c49a0;fill-opacity:1;fill-rule:nonzero;stroke:none"
         id="path92"
         inkscape:connector-curvature="0" /><path
         d="m 1553.64,111.691 c 5.08,-5.312 11.34,-7.972 18.83,-7.972 7.52,0 13.9,2.621 19.12,7.871 5.22,5.25 7.82,11.73 7.82,19.351 0,7.629 -2.6,14.059 -7.82,19.348 -5.22,5.25 -11.6,7.879 -19.12,7.879 -7.41,0 -13.66,-2.656 -18.78,-7.996 -5.13,-5.32 -7.68,-11.742 -7.68,-19.231 0,-7.492 2.54,-13.91 7.63,-19.25 z m 47.13,92.278 h 63.22 v -44.25 h -11.15 v -56 h 11.15 V 58.6094 h -63.22 v 13.1094 c -13.88,-11.1407 -28.76,-16.75 -44.62,-16.75 -19.32,0 -35.22,8.0429 -47.69,24.082 -11.62,14.8086 -17.42,32.1482 -17.42,51.9882 0,20.461 5.94,37.922 17.81,52.473 12.74,15.59 29.14,23.398 49.2,23.398 12.34,0 26.57,-5.34 42.72,-16.109 v 13.168"
         style="fill:#2c49a0;fill-opacity:1;fill-rule:nonzero;stroke:none"
         id="path94"
         inkscape:connector-curvature="0" /><path
         d="m 1773.89,204.32 v -43.859 h -9.26 l 18.44,-51.391 19.01,51.391 h -10.04 v 43.859 h 75.05 v -43.859 h -12.36 L 1813.01,58.6094 h -63.81 l -39.82,101.8516 h -12.25 v 43.859 h 76.76"
         style="fill:#2c49a0;fill-opacity:1;fill-rule:nonzero;stroke:none"
         id="path96"
         inkscape:connector-curvature="0" /><path
         d="m 2000.04,145.238 c 0.12,6.703 -2.3,12.211 -7.26,16.551 -4.73,4.152 -10.51,6.231 -17.35,6.231 -13.08,0 -20.76,-8.129 -23.1,-24.372 h 47.62 z m -46.4,-22.847 c 0.12,-16.602 8.01,-24.9027 23.59,-24.9027 6.76,0 14.28,4.1207 22.5,12.3907 l 48.61,-14.6173 c -14.08,-27.5508 -38.45,-41.3203 -73.1,-41.3203 -22.09,0 -40.8,7.1289 -56.07,21.3867 -15.53,14.6016 -23.29,32.9019 -23.29,54.8319 0,23.442 7.64,42.461 22.91,57.149 15.06,14.453 34.32,21.679 57.76,21.679 29.2,0 51.4,-12.547 66.6,-37.629 7.03,-11.597 10.55,-27.687 10.55,-48.16 v -0.808 h -100.06"
         style="fill:#2c49a0;fill-opacity:1;fill-rule:nonzero;stroke:none"
         id="path98"
         inkscape:connector-curvature="0" /><path
         d="m 2147.97,203.969 1.9,-21.59 c 1.46,7.07 5,13.019 10.6,17.832 5.61,4.828 12,7.211 19.18,7.211 8.23,0 15.47,-3.031 21.76,-9.102 6.27,-6.09 9.4,-13.191 9.4,-21.332 0,-8.648 -3.01,-15.867 -9.01,-21.617 -6.01,-5.73 -13.36,-8.621 -22.05,-8.621 -14.8,0 -24.76,7.879 -29.88,23.66 v -66.691 h 17.93 V 58.6094 h -85.53 v 45.1096 h 12.64 v 56.519 h -12.64 v 43.731 h 65.7"
         style="fill:#2c49a0;fill-opacity:1;fill-rule:nonzero;stroke:none"
         id="path100"
         inkscape:connector-curvature="0" /><path
         d="m 2299.11,111.691 c 5.07,-5.312 11.32,-7.972 18.82,-7.972 7.52,0 13.91,2.621 19.13,7.871 5.21,5.25 7.83,11.73 7.83,19.351 0,7.629 -2.62,14.059 -7.83,19.348 -5.22,5.25 -11.61,7.879 -19.13,7.879 -7.4,0 -13.65,-2.656 -18.78,-7.996 -5.12,-5.32 -7.68,-11.742 -7.68,-19.231 0,-7.492 2.54,-13.91 7.64,-19.25 z m 47.13,92.278 h 63.22 v -44.25 h -11.15 v -56 h 11.15 V 58.6094 h -63.22 v 13.1094 c -13.89,-11.1407 -28.75,-16.75 -44.61,-16.75 -19.34,0 -35.24,8.0429 -47.7,24.082 -11.62,14.8086 -17.42,32.1482 -17.42,51.9882 0,20.461 5.94,37.922 17.81,52.473 12.74,15.59 29.14,23.398 49.18,23.398 12.36,0 26.58,-5.34 42.74,-16.109 v 13.168"
         style="fill:#2c49a0;fill-opacity:1;fill-rule:nonzero;stroke:none"
         id="path102"
         inkscape:connector-curvature="0" /><path
         d="m 2505.79,115.02 c 5.19,-5.11 11.5,-7.668 18.86,-7.668 7.25,0 13.42,2.589 18.54,7.777 5.1,5.152 7.67,11.383 7.67,18.633 0,7.226 -2.57,13.449 -7.67,18.668 -5.12,5.191 -11.29,7.808 -18.54,7.808 -7.42,0 -13.73,-2.558 -18.92,-7.707 -5.18,-5.16 -7.78,-11.41 -7.78,-18.769 0,-7.391 2.62,-13.653 7.84,-18.742 z M 2455.55,58.0898 C 2477.72,47.3594 2495.94,42 2510.22,42 c 11.13,0 20.49,2.1406 28.09,6.4219 9.14,5.2773 13.59,13.0273 13.32,23.2383 l -0.08,3.4687 c -13.75,-8.2578 -28.32,-12.3672 -43.73,-12.3672 -19.77,0 -36.04,7.3789 -48.77,22.1797 -12.09,14.1289 -18.13,31.1606 -18.13,51.1286 0,18.879 6.14,35.481 18.42,49.809 12.93,15.07 28.77,22.59 47.48,22.59 14.75,0 30.02,-5.539 45.82,-16.66 v 12.16 h 64.1 v -43.731 h -12.93 V 79.9609 C 2603.81,26.6719 2575.14,0 2517.78,0 c -23.44,0 -44.18,3.78906 -62.23,11.4102 v 46.6796"
         style="fill:#2c49a0;fill-opacity:1;fill-rule:nonzero;stroke:none"
         id="path104"
         inkscape:connector-curvature="0" /><path
         d="m 2750.67,145.238 c 0.12,6.703 -2.29,12.211 -7.27,16.551 -4.72,4.152 -10.48,6.231 -17.32,6.231 -13.09,0 -20.78,-8.129 -23.09,-24.372 h 47.56 z m -46.41,-22.847 c 0.16,-16.602 8.01,-24.9027 23.62,-24.9027 6.77,0 14.25,4.1207 22.48,12.3907 l 48.59,-14.6173 c -14.06,-27.5508 -38.42,-41.3203 -73.07,-41.3203 -22.11,0 -40.78,7.1289 -56.07,21.3867 -15.53,14.6016 -23.28,32.9019 -23.28,54.8319 0,23.442 7.62,42.461 22.89,57.149 15.06,14.453 34.32,21.679 57.73,21.679 29.2,0 51.43,-12.547 66.64,-37.629 7.04,-11.597 10.55,-27.687 10.55,-48.16 v -0.808 h -100.08"
         style="fill:#2c49a0;fill-opacity:1;fill-rule:nonzero;stroke:none"
         id="path106"
         inkscape:connector-curvature="0" /><path
         d="m 2956.86,70.3594 c 2.13,3.9023 3.18,12.4492 3.18,25.5703 V 226.359 h -18.61 l -0.1,43.821 h 97.6 l 0.08,-43.821 H 3019.6 V 90.0703 c 0,-29.8789 -5.98,-51.1719 -17.92,-63.9219 -12.44,-13.3476 -33.45,-19.79684 -63.12,-19.41012 l -4.3,0.10156 V 59.8008 c 11.88,1 19.44,4.5078 22.6,10.5586"
         style="fill:#2c49a0;fill-opacity:1;fill-rule:nonzero;stroke:none"
         id="path108"
         inkscape:connector-curvature="0" /><path
         d="m 3117.82,111.719 c 5.21,-5.34 11.46,-8 18.77,-8 7.42,0 13.75,2.621 19,7.929 5.22,5.293 7.85,11.672 7.85,19.161 0,7.453 -2.52,13.98 -7.5,19.543 -5.04,5.539 -11.23,8.328 -18.65,8.328 -7.85,0 -14.36,-2.711 -19.49,-8.129 -5.2,-5.449 -7.78,-12.063 -7.78,-19.93 0,-7.301 2.62,-13.59 7.8,-18.902 z M 3081,185.781 c 15.55,15.457 33.93,23.207 55.1,23.207 23.1,0 42.11,-7.449 57.05,-22.367 14.92,-14.902 22.42,-33.891 22.42,-57.012 0,-21 -7.62,-38.9176 -22.85,-53.8395 -15.23,-14.8984 -33.36,-22.3476 -54.34,-22.3476 -23.04,0 -42.12,7.0898 -57.34,21.289 -15.61,14.5508 -23.4,33.2501 -23.4,56.0981 0,21.171 7.78,39.5 23.36,54.972"
         style="fill:#2c49a0;fill-opacity:1;fill-rule:nonzero;stroke:none"
         id="path110"
         inkscape:connector-curvature="0" /><path
         d="m 3351.86,145.238 c 0.14,6.703 -2.28,12.211 -7.26,16.551 -4.71,4.152 -10.47,6.231 -17.31,6.231 -13.09,0 -20.8,-8.129 -23.11,-24.372 h 47.58 z m -46.39,-22.847 c 0.14,-16.602 7.99,-24.9027 23.6,-24.9027 6.77,0 14.26,4.1207 22.5,12.3907 l 48.57,-14.6173 c -14.06,-27.5508 -38.4,-41.3203 -73.04,-41.3203 -22.13,0 -40.81,7.1289 -56.08,21.3867 -15.53,14.6016 -23.3,32.9019 -23.3,54.8319 0,23.442 7.64,42.461 22.91,57.149 15.04,14.453 34.3,21.679 57.71,21.679 29.22,0 51.45,-12.547 66.65,-37.629 7.03,-11.597 10.54,-27.687 10.54,-48.16 v -0.808 h -100.06"
         style="fill:#2c49a0;fill-opacity:1;fill-rule:nonzero;stroke:none"
         id="path112"
         inkscape:connector-curvature="0" /></g></g></svg>