<?xml version="1.0" encoding="UTF-8" standalone="no"?>
<!-- Created with Inkscape (http://www.inkscape.org/) -->

<svg
   xmlns:dc="http://purl.org/dc/elements/1.1/"
   xmlns:cc="http://creativecommons.org/ns#"
   xmlns:rdf="http://www.w3.org/1999/02/22-rdf-syntax-ns#"
   xmlns:svg="http://www.w3.org/2000/svg"
   xmlns="http://www.w3.org/2000/svg"
   xmlns:sodipodi="http://sodipodi.sourceforge.net/DTD/sodipodi-0.dtd"
   xmlns:inkscape="http://www.inkscape.org/namespaces/inkscape"
   version="1.1"
   id="svg2"
   xml:space="preserve"
   width="461.10666"
   height="241"
   viewBox="0 0 461.10666 241"
   sodipodi:docname="crc-logo.svg"
   inkscape:version="0.92.5 (2060ec1f9f, 2020-04-08)"><metadata
     id="metadata8"><rdf:RDF><cc:Work
         rdf:about=""><dc:format>image/svg+xml</dc:format><dc:type
           rdf:resource="http://purl.org/dc/dcmitype/StillImage" /><dc:title></dc:title></cc:Work></rdf:RDF></metadata><defs
     id="defs6"><clipPath
       clipPathUnits="userSpaceOnUse"
       id="clipPath24"><path
         d="m 1992.87,818.129 c -38.79,20.973 -59.04,51.121 -60.84,90.543 -0.45,19.707 1.08,39.238 4.68,58.68 11.07,59.488 40.77,119.248 88.74,179.368 6.75,-16.47 13.23,-30.51 19.26,-41.94 32.94,-56.34 78.84,-93.24 137.61,-110.882 -3.15,-8.91 -5.76,-17.546 -7.29,-25.738 -7.92,-42.57 10.62,-64.441 55.8,-65.699 35.55,-0.27 80.82,11.879 135.72,36.539 22.23,10.621 64.8,33.391 127.89,68.22 2.34,1.35 4.23,1.8 5.49,1.35 1.35,-0.54 1.35,-2.07 0.18,-4.59 -5.58,-11.25 -28.08,-32.582 -67.5,-63.902 -44.46,-35.367 -93.96,-66.328 -148.59,-92.879 -18.75,-9.199 -36.75,-17.176 -54.02,-23.949 -36.55,-6.398 -71.1,-15.426 -103.57,-27.039 -1.81,-0.18 -3.61,-0.352 -5.4,-0.492 -8.49,-0.66 -16.78,-0.989 -24.86,-0.989 -39.29,0 -73.74,7.801 -103.3,23.399 m 231.21,279.001 c -11.7,87.3 -17.64,159.75 -17.64,217.53 61.29,44.64 129.33,85.41 204.39,122.31 159.48,78.21 309.69,125.19 450.54,140.85 65.79,7.47 128.88,7.92 189.27,1.26 l 0.9,-0.81 -271.8,-308.52 c -4.5,-5.13 -9.18,-3.96 -14.04,3.42 -19.44,27.27 -26.73,59.85 -21.69,98.01 4.86,36.81 18.9,71.1 42.39,102.87 1.89,2.52 6.57,9.18 14.22,19.89 -140.13,-61.65 -265.05,-135.09 -374.58,-220.14 -58.86,-45.81 -109.98,-93.15 -153.36,-141.93 -17.82,-20.07 -33.03,-39.15 -46.08,-57.42 -0.99,8.55 -1.8,16.11 -2.52,22.68"
         id="path22"
         inkscape:connector-curvature="0" /></clipPath><linearGradient
       x1="0"
       y1="0"
       x2="0.69662899"
       y2="0"
       gradientUnits="userSpaceOnUse"
       gradientTransform="matrix(-9.05e-5,2069.43,1159.96,5.07e-5,1911.58,-81.32)"
       id="linearGradient34"><stop
         style="stop-opacity:1;stop-color:#656d71"
         offset="0"
         id="stop28" /><stop
         style="stop-opacity:1;stop-color:#1f2220"
         offset="0.69458915"
         id="stop30" /><stop
         style="stop-opacity:1;stop-color:#1f2220"
         offset="1"
         id="stop32" /></linearGradient><linearGradient
       x1="0.69662899"
       y1="0"
       x2="1"
       y2="0"
       gradientUnits="userSpaceOnUse"
       gradientTransform="matrix(-9.05e-5,2069.43,1159.96,5.07e-5,1911.58,-81.32)"
       id="linearGradient42"><stop
         style="stop-opacity:1;stop-color:#1f2120"
         offset="0"
         id="stop38" /><stop
         style="stop-opacity:1;stop-color:#1f2120"
         offset="1"
         id="stop40" /></linearGradient><clipPath
       clipPathUnits="userSpaceOnUse"
       id="clipPath52"><path
         d="m 1040.94,833.969 c -46.53,-2.035 -91.776,-2.66 -135.62,-1.887 -15.273,17.305 -23.433,38.125 -24.492,62.457 -0.539,19.801 1.082,39.332 4.684,58.77 16.558,88.741 74.16,178.201 172.978,268.471 83.61,76.5 183.96,143.55 301.14,201.15 159.48,78.21 309.69,125.19 450.54,140.85 65.79,7.47 128.88,7.92 189.27,1.26 l 0.9,-0.81 -271.8,-308.52 c -4.5,-5.13 -9.18,-3.96 -14.13,3.42 -19.44,27.27 -26.64,59.85 -21.6,97.92 4.77,36.9 18.9,71.19 42.3,102.96 1.89,2.52 6.66,9.18 14.22,19.89 -140.13,-61.65 -264.96,-135.09 -374.49,-220.14 -58.86,-45.81 -109.98,-93.15 -153.36,-142.02 -56.61,-63.54 -89.19,-118.17 -97.65,-163.709 -8.01,-42.48 10.62,-64.351 55.8,-65.609 35.55,-0.274 80.82,11.879 135.63,36.539 22.23,10.711 64.89,33.391 127.98,68.219 2.34,1.351 4.14,1.8 5.49,1.351 1.35,-0.543 1.35,-2.07 0.18,-4.5 -5.58,-11.34 -28.17,-32.672 -67.59,-63.992 -44.37,-35.367 -93.96,-66.328 -148.59,-92.879 -5.57,-2.746 -11.07,-5.375 -16.51,-7.902 -54.16,8.531 -112.6,11.453 -175.28,8.711"
         id="path50"
         inkscape:connector-curvature="0" /></clipPath><linearGradient
       x1="0"
       y1="0"
       x2="0.69662899"
       y2="0"
       gradientUnits="userSpaceOnUse"
       gradientTransform="matrix(-9e-5,2058.36,1160.05,5.07e-5,860.29,-76.79)"
       id="linearGradient62"><stop
         style="stop-opacity:1;stop-color:#656d71"
         offset="0"
         id="stop56" /><stop
         style="stop-opacity:1;stop-color:#1f2220"
         offset="0.69458915"
         id="stop58" /><stop
         style="stop-opacity:1;stop-color:#1f2220"
         offset="1"
         id="stop60" /></linearGradient><linearGradient
       x1="0.69662899"
       y1="0"
       x2="1"
       y2="0"
       gradientUnits="userSpaceOnUse"
       gradientTransform="matrix(-9e-5,2058.36,1160.05,5.07e-5,860.29,-76.79)"
       id="linearGradient70"><stop
         style="stop-opacity:1;stop-color:#1f2120"
         offset="0"
         id="stop66" /><stop
         style="stop-opacity:1;stop-color:#1f2120"
         offset="1"
         id="stop68" /></linearGradient><clipPath
       clipPathUnits="userSpaceOnUse"
       id="clipPath88"><path
         d="m 2230,823.25 c -38.11,-14.941 -72.61,-23.969 -103.57,-27.039 32.47,11.613 67.02,20.641 103.57,27.039"
         id="path86"
         inkscape:connector-curvature="0" /></clipPath><linearGradient
       x1="0"
       y1="0"
       x2="0.69662899"
       y2="0"
       gradientUnits="userSpaceOnUse"
       gradientTransform="matrix(-9.05e-5,2069.43,143.567,6.3e-6,2106.43,-81.32)"
       id="linearGradient98"><stop
         style="stop-opacity:1;stop-color:#9ea4ab"
         offset="0"
         id="stop92" /><stop
         style="stop-opacity:1;stop-color:#7f868c"
         offset="0.69458915"
         id="stop94" /><stop
         style="stop-opacity:1;stop-color:#7f868c"
         offset="1"
         id="stop96" /></linearGradient><linearGradient
       x1="0.69662899"
       y1="0"
       x2="1"
       y2="0"
       gradientUnits="userSpaceOnUse"
       gradientTransform="matrix(-9.05e-5,2069.43,143.567,6.3e-6,2106.43,-81.32)"
       id="linearGradient106"><stop
         style="stop-opacity:1;stop-color:#7f868c"
         offset="0"
         id="stop102" /><stop
         style="stop-opacity:1;stop-color:#7f868c"
         offset="1"
         id="stop104" /></linearGradient><clipPath
       clipPathUnits="userSpaceOnUse"
       id="clipPath124"><path
         d="m 941.672,804.09 c -14.824,7.996 -26.938,17.328 -36.352,27.992 43.844,-0.773 89.09,-0.148 135.62,1.887 62.68,2.742 121.12,-0.18 175.28,-8.711 -55.56,-25.817 -104.34,-40.297 -146.39,-43.578 -8.41,-0.641 -16.62,-0.961 -24.63,-0.961 -39.39,0 -73.915,7.742 -103.528,23.371"
         id="path122"
         inkscape:connector-curvature="0" /></clipPath><linearGradient
       x1="0"
       y1="0"
       x2="0.69662899"
       y2="0"
       gradientUnits="userSpaceOnUse"
       gradientTransform="matrix(-9e-5,2058.36,350.899,1.53e-5,885.321,-76.79)"
       id="linearGradient134"><stop
         style="stop-opacity:1;stop-color:#9ea4ab"
         offset="0"
         id="stop128" /><stop
         style="stop-opacity:1;stop-color:#7f868c"
         offset="0.69458915"
         id="stop130" /><stop
         style="stop-opacity:1;stop-color:#7f868c"
         offset="1"
         id="stop132" /></linearGradient><linearGradient
       x1="0.69662899"
       y1="0"
       x2="1"
       y2="0"
       gradientUnits="userSpaceOnUse"
       gradientTransform="matrix(-9e-5,2058.36,350.899,1.53e-5,885.321,-76.79)"
       id="linearGradient142"><stop
         style="stop-opacity:1;stop-color:#7f868c"
         offset="0"
         id="stop138" /><stop
         style="stop-opacity:1;stop-color:#7f868c"
         offset="1"
         id="stop140" /></linearGradient><clipPath
       clipPathUnits="userSpaceOnUse"
       id="clipPath168"><path
         d="m 1777.72,215.211 c 0,0 -59.57,684.242 639.46,653.742 806.96,-35.215 990.62,363.987 1036.29,465.337 0,0 -137.03,-562.411 -796.48,-568.11 -659.46,-5.711 -842.16,-176.989 -879.27,-550.969"
         id="path166"
         inkscape:connector-curvature="0" /></clipPath><linearGradient
       x1="0"
       y1="0"
       x2="0.69662899"
       y2="0"
       gradientUnits="userSpaceOnUse"
       gradientTransform="matrix(-9.99928,-1200.04,-1784.86,14.8723,3483.21,1364.17)"
       id="linearGradient178"><stop
         style="stop-opacity:1;stop-color:#656d71"
         offset="0"
         id="stop172" /><stop
         style="stop-opacity:1;stop-color:#1f2220"
         offset="0.69458915"
         id="stop174" /><stop
         style="stop-opacity:1;stop-color:#1f2220"
         offset="1"
         id="stop176" /></linearGradient><linearGradient
       x1="0.69662899"
       y1="0"
       x2="1"
       y2="0"
       gradientUnits="userSpaceOnUse"
       gradientTransform="matrix(-9.99928,-1200.04,-1784.86,14.8723,3483.21,1364.17)"
       id="linearGradient186"><stop
         style="stop-opacity:1;stop-color:#1f2120"
         offset="0"
         id="stop182" /><stop
         style="stop-opacity:1;stop-color:#1f2120"
         offset="1"
         id="stop184" /></linearGradient><clipPath
       clipPathUnits="userSpaceOnUse"
       id="clipPath196"><path
         d="m 1813.88,232.332 c 0,0 59,494.828 763.18,468.188 0,0 412.98,-5.711 588.07,133.218 0,0 -87.55,-241.699 -548.11,-266.449 -460.56,-24.738 -639.47,-32.34 -803.14,-334.957"
         id="path194"
         inkscape:connector-curvature="0" /></clipPath><linearGradient
       x1="0"
       y1="0"
       x2="0.69662899"
       y2="0"
       gradientUnits="userSpaceOnUse"
       gradientTransform="matrix(-9.99907,-1200.01,-1396.5,11.6363,3194.75,1366.57)"
       id="linearGradient206"><stop
         style="stop-opacity:1;stop-color:#656d71"
         offset="0"
         id="stop200" /><stop
         style="stop-opacity:1;stop-color:#1f2220"
         offset="0.69458915"
         id="stop202" /><stop
         style="stop-opacity:1;stop-color:#1f2220"
         offset="1"
         id="stop204" /></linearGradient><linearGradient
       x1="0.69662899"
       y1="0"
       x2="1"
       y2="0"
       gradientUnits="userSpaceOnUse"
       gradientTransform="matrix(-9.99907,-1200.01,-1396.5,11.6363,3194.75,1366.57)"
       id="linearGradient214"><stop
         style="stop-opacity:1;stop-color:#1f2120"
         offset="0"
         id="stop210" /><stop
         style="stop-opacity:1;stop-color:#1f2120"
         offset="1"
         id="stop212" /></linearGradient><clipPath
       clipPathUnits="userSpaceOnUse"
       id="clipPath224"><path
         d="m 1850.51,235.199 c 0,0 155.59,274.051 493.88,262.633 296.89,-10.031 398.24,42.816 398.24,42.816 0,0 -99.92,-112.769 -371.12,-115.617 -271.2,-2.851 -392.53,-65.66 -521,-189.832"
         id="path222"
         inkscape:connector-curvature="0" /></clipPath><linearGradient
       x1="0"
       y1="0"
       x2="0.69662899"
       y2="0"
       gradientUnits="userSpaceOnUse"
       gradientTransform="matrix(-9.99909,-1200.01,-934.933,7.79032,2772.25,1370.1)"
       id="linearGradient234"><stop
         style="stop-opacity:1;stop-color:#656d71"
         offset="0"
         id="stop228" /><stop
         style="stop-opacity:1;stop-color:#1f2220"
         offset="0.69458915"
         id="stop230" /><stop
         style="stop-opacity:1;stop-color:#1f2220"
         offset="1"
         id="stop232" /></linearGradient><linearGradient
       x1="0.69662899"
       y1="0"
       x2="1"
       y2="0"
       gradientUnits="userSpaceOnUse"
       gradientTransform="matrix(-9.99909,-1200.01,-934.933,7.79032,2772.25,1370.1)"
       id="linearGradient242"><stop
         style="stop-opacity:1;stop-color:#1f2120"
         offset="0"
         id="stop238" /><stop
         style="stop-opacity:1;stop-color:#1f2120"
         offset="1"
         id="stop240" /></linearGradient><clipPath
       clipPathUnits="userSpaceOnUse"
       id="clipPath252"><path
         d="m 1680.61,215.211 c 0,0 59.57,684.242 -639.46,653.742 C 234.195,833.738 50.5313,1232.94 4.85938,1334.29 c 0,0 137.03162,-562.411 796.48462,-568.11 C 1460.8,760.469 1643.5,589.191 1680.61,215.211"
         id="path250"
         inkscape:connector-curvature="0" /></clipPath><linearGradient
       x1="0"
       y1="0"
       x2="0.69662899"
       y2="0"
       gradientUnits="userSpaceOnUse"
       gradientTransform="matrix(-9.99867,-1199.96,-1784.86,14.8723,1770.04,1378.48)"
       id="linearGradient262"><stop
         style="stop-opacity:1;stop-color:#656d71"
         offset="0"
         id="stop256" /><stop
         style="stop-opacity:1;stop-color:#1f2220"
         offset="0.69458915"
         id="stop258" /><stop
         style="stop-opacity:1;stop-color:#1f2220"
         offset="1"
         id="stop260" /></linearGradient><linearGradient
       x1="0.69662899"
       y1="0"
       x2="1"
       y2="0"
       gradientUnits="userSpaceOnUse"
       gradientTransform="matrix(-9.99867,-1199.96,-1784.86,14.8723,1770.04,1378.48)"
       id="linearGradient270"><stop
         style="stop-opacity:1;stop-color:#1f2120"
         offset="0"
         id="stop266" /><stop
         style="stop-opacity:1;stop-color:#1f2120"
         offset="1"
         id="stop268" /></linearGradient><clipPath
       clipPathUnits="userSpaceOnUse"
       id="clipPath280"><path
         d="m 1644.45,232.332 c 0,0 -59,494.828 -763.177,468.188 0,0 -412.988,-5.711 -588.074,133.218 0,0 87.547,-241.699 548.114,-266.449 460.557,-24.738 639.467,-32.34 803.137,-334.957"
         id="path278"
         inkscape:connector-curvature="0" /></clipPath><linearGradient
       x1="0"
       y1="0"
       x2="0.69662899"
       y2="0"
       gradientUnits="userSpaceOnUse"
       gradientTransform="matrix(-9.99883,-1199.98,-1396.5,11.6363,1674.17,1379.27)"
       id="linearGradient290"><stop
         style="stop-opacity:1;stop-color:#656d71"
         offset="0"
         id="stop284" /><stop
         style="stop-opacity:1;stop-color:#1f2220"
         offset="0.69458915"
         id="stop286" /><stop
         style="stop-opacity:1;stop-color:#1f2220"
         offset="1"
         id="stop288" /></linearGradient><linearGradient
       x1="0.69662899"
       y1="0"
       x2="1"
       y2="0"
       gradientUnits="userSpaceOnUse"
       gradientTransform="matrix(-9.99883,-1199.98,-1396.5,11.6363,1674.17,1379.27)"
       id="linearGradient298"><stop
         style="stop-opacity:1;stop-color:#1f2120"
         offset="0"
         id="stop294" /><stop
         style="stop-opacity:1;stop-color:#1f2120"
         offset="1"
         id="stop296" /></linearGradient><clipPath
       clipPathUnits="userSpaceOnUse"
       id="clipPath308"><path
         d="m 1607.82,235.199 c 0,0 -155.59,274.051 -493.88,262.633 -296.893,-10.031 -398.241,42.816 -398.241,42.816 0,0 99.922,-112.769 371.121,-115.617 271.2,-2.851 392.53,-65.66 521,-189.832"
         id="path306"
         inkscape:connector-curvature="0" /></clipPath><linearGradient
       x1="0"
       y1="0"
       x2="0.69662899"
       y2="0"
       gradientUnits="userSpaceOnUse"
       gradientTransform="matrix(-9.99912,-1200.02,-934.933,7.79032,1637.52,1379.58)"
       id="linearGradient318"><stop
         style="stop-opacity:1;stop-color:#656d71"
         offset="0"
         id="stop312" /><stop
         style="stop-opacity:1;stop-color:#1f2220"
         offset="0.69458915"
         id="stop314" /><stop
         style="stop-opacity:1;stop-color:#1f2220"
         offset="1"
         id="stop316" /></linearGradient><linearGradient
       x1="0.69662899"
       y1="0"
       x2="1"
       y2="0"
       gradientUnits="userSpaceOnUse"
       gradientTransform="matrix(-9.99912,-1200.02,-934.933,7.79032,1637.52,1379.58)"
       id="linearGradient326"><stop
         style="stop-opacity:1;stop-color:#1f2120"
         offset="0"
         id="stop322" /><stop
         style="stop-opacity:1;stop-color:#1f2120"
         offset="1"
         id="stop324" /></linearGradient></defs><sodipodi:namedview
     pagecolor="#ffffff"
     bordercolor="#666666"
     borderopacity="1"
     objecttolerance="10"
     gridtolerance="10"
     guidetolerance="10"
     inkscape:pageopacity="0"
     inkscape:pageshadow="2"
     inkscape:window-width="1208"
     inkscape:window-height="705"
     id="namedview4"
     showgrid="false"
     inkscape:zoom="0.97925311"
     inkscape:cx="230.55333"
     inkscape:cy="120.5"
     inkscape:window-x="871"
     inkscape:window-y="507"
     inkscape:window-maximized="0"
     inkscape:current-layer="g10" /><g
     id="g10"
     inkscape:groupmode="layer"
     inkscape:label="ink_ext_XXXXXX"
     transform="matrix(1.3333333,0,0,-1.3333333,0,241)"><g
       id="g12"
       transform="scale(0.1)"><path
         d="m 1992.06,793.109 c -12.77,6.879 -23.85,14.696 -33.21,23.422 7.34,-5.804 15.53,-11.152 24.57,-16.043 27.34,-14.367 58.44,-22.726 92.95,-25.039 -3.73,-1.758 -7.4,-3.57 -11.06,-5.418 -26.71,3.77 -51.19,11.457 -73.25,23.078 m -742.5,26.082 c 52.54,26.153 101.1,56.754 144.27,91.188 55.53,44.191 68.22,61.019 72.99,70.742 4.23,8.82 3.06,15.66 1.44,19.799 -0.6,1.5 -1.35,2.9 -2.23,4.2 5.03,-2.35 8.85,-6.456 10.87,-11.581 1.62,-4.23 2.79,-10.98 -1.35,-19.891 -4.86,-9.718 -17.55,-26.546 -73.08,-70.738 -41.07,-32.676 -86.94,-62.031 -136.53,-87.336 -5.41,1.27 -10.87,2.477 -16.38,3.617 m 1195.47,105.231 c 55.53,44.098 68.22,60.93 72.99,70.648 4.23,8.91 3.06,15.75 1.44,19.89 -0.57,1.47 -1.3,2.86 -2.15,4.14 4.9,-2.32 8.82,-6.42 10.79,-11.43 1.71,-4.23 2.88,-11.068 -1.35,-19.979 -4.86,-9.722 -17.55,-26.55 -72.99,-70.742 -38.92,-30.906 -82.08,-58.84 -128.6,-83.183 -9.06,-0.465 -18.01,-1.067 -26.86,-1.801 53.51,26.433 102.86,57.551 146.73,92.457 M 1146.78,919.02 c -6.12,7.652 -5.22,21.242 -3.33,31.41 7.83,41.672 39.06,93.51 92.97,153.99 42.39,47.79 93.06,94.68 150.75,139.59 91.17,70.83 194.67,134.1 308.07,188.82 -2.45,-4.95 -4.71,-9.95 -6.79,-15 -107.28,-52.9 -205.54,-113.69 -292.64,-181.29 -57.69,-44.91 -108.45,-91.89 -150.75,-139.5 -53.82,-60.57 -85.14,-112.411 -92.88,-154.079 -1.75,-9.332 -2.72,-21.742 1.99,-29.531 -2.95,1.441 -5.51,3.273 -7.39,5.59 m 1051.2,14.128 c -6.12,7.563 -5.13,21.243 -3.33,31.321 1.26,6.301 3.33,13.769 6.48,22.769 1.89,5.133 1.53,10.801 -0.99,15.662 -1.08,2.07 -2.52,3.87 -4.14,5.4 18.27,-5.04 31.68,-7.47 41.49,-7.38 3.96,0 7.83,1.26 11.07,3.42 8.82,6.03 13.86,12.87 15.39,20.88 0.36,2.07 0.45,4.32 0.18,6.39 -2.61,18.72 -4.86,35.55 -6.75,50.58 9.36,12.06 19.44,24.21 30.24,36.36 42.39,47.7 93.06,94.59 150.75,139.5 91.17,70.83 194.67,134.1 308.07,188.82 -2.43,-4.96 -4.68,-9.96 -6.75,-15.01 -107.43,-52.9 -205.58,-113.68 -292.59,-181.28 -57.78,-44.91 -108.45,-91.89 -150.75,-139.5 -10.8,-12.15 -20.88,-24.3 -30.24,-36.36 1.89,-15.21 4.14,-32.04 6.66,-50.49 0.36,-2.16 0.27,-4.23 -0.09,-6.39 -1.53,-8.01 -6.57,-14.85 -15.39,-20.879 -3.33,-2.25 -7.11,-3.422 -11.07,-3.512 -9.81,-0.09 -23.22,2.34 -41.58,7.471 1.71,-1.619 3.15,-3.42 4.14,-5.49 2.52,-4.86 2.88,-10.532 1.08,-15.66 -3.15,-9 -5.31,-16.469 -6.48,-22.77 -1.75,-9.316 -2.72,-21.707 2.05,-29.5 -2.98,1.453 -5.56,3.301 -7.45,5.648 m -468,292.052 c -7.79,0.53 -14.67,4.31 -20.26,11 3.58,-2.08 7.47,-3.29 11.62,-3.53 4.86,-0.36 14.13,0.54 22.32,9.99 L 2015.28,1551 c 2.43,2.7 4.05,6.12 4.68,9.72 0.89,5.05 -0.24,10.58 -2.99,14.95 2.46,-1.13 4.71,-2.74 6.59,-4.78 4.14,-4.5 6.12,-11.25 5.22,-17.28 -0.63,-3.78 -2.25,-7.29 -4.77,-10.08 L 1752.3,1235.19 c -7.42,-8.56 -15.8,-10.03 -20.86,-10.03 -0.52,0 -1.01,0.02 -1.46,0.04 m 1051.2,14.04 c -7.84,0.53 -14.65,4.35 -20.16,10.96 3.52,-2.02 7.35,-3.21 11.43,-3.49 4.86,-0.36 14.13,0.54 22.41,9.99 l 271.71,308.34 c 2.34,2.61 3.96,5.94 4.59,9.45 0.98,5.14 -0.13,10.83 -3.02,15.3 2.6,-1.16 4.94,-2.85 6.89,-5.04 4.14,-4.68 6.03,-11.7 4.77,-17.82 -0.63,-3.42 -2.25,-6.66 -4.59,-9.36 l -271.62,-308.25 c -7.42,-8.64 -15.8,-10.12 -20.93,-10.12 -0.53,0 -1.02,0.01 -1.48,0.04 m -1598.4,123.57 c -0.88,0.92 -1.66,1.92 -2.33,2.96 6.76,-3.01 14.88,-2.12 20.96,2.89 2.61,2.16 275.4,223.29 774.9,262.08 l 253.98,18.63 c 0.9,0 1.89,0.27 2.79,0.45 l 77.58,6.03 c 7.38,0.54 9.72,-0.72 9.9,-0.9 0.18,-0.27 0.9,-1.71 0.9,-5.58 0,-0.24 -0.01,-0.53 -0.03,-0.85 -0.66,-0.03 -1.37,-0.07 -2.13,-0.14 l -77.58,-6.03 c -0.9,-0.18 -1.8,-0.36 -2.79,-0.45 l -253.89,-18.63 c -456.5,-35.36 -723.56,-223.04 -768.29,-256.87 -4.84,-3.04 -9.66,-6.11 -14.43,-9.19 -1.65,-0.43 -3.35,-0.65 -5.05,-0.64 -5.31,0 -10.6,2.11 -14.49,6.24 m 1051.02,12.87 c 0,-0.09 0.36,7.47 0.63,15.12 34.74,7.2 69.03,17.28 102.6,30.15 -14.79,-8.17 -29.3,-16.52 -43.54,-25.03 -16.65,-4.88 -33.44,-9.09 -50.33,-12.59 -0.36,-7.65 -0.72,-15.12 -0.72,-15.12 -0.05,-1.45 -0.08,-2.92 -0.11,-4.41 -2.94,-1.95 -5.88,-3.89 -8.8,-5.85 0,6.03 0.09,12.06 0.27,17.73 m 312.12,183.06 c 36.45,41.31 58.95,83.61 66.78,125.64 7.97,42.94 0.91,75.51 -20.91,97.09 28.5,-21.1 38.59,-56.34 29.55,-104.56 -7.83,-41.94 -30.33,-84.24 -66.78,-125.64 -16.24,-18.59 -34,-35.68 -53.13,-51.22 -15.76,-6.59 -31.58,-13.48 -47.49,-20.69 34.29,22.23 65.16,48.78 91.98,79.38 m -575.28,195.84 0.18,0.63 c -0.18,-1.08 -0.36,-2.16 -0.36,-3.24 0,0.9 0.09,1.71 0.18,2.61"
         style="fill:#e3e4e9;fill-opacity:1;fill-rule:nonzero;stroke:none"
         id="path14"
         inkscape:connector-curvature="0" /><path
         d="m 1983.42,800.488 c -45.27,24.481 -69.3,60.481 -71.37,107.641 -0.54,20.973 1.17,42.121 5.04,62.91 11.61,62.281 42.84,125.641 92.7,188.191 2.34,2.88 5.4,4.95 8.82,6.21 -2.61,6.03 -5.31,12.33 -7.92,18.99 -16.56,41.31 -34.2,92.97 -52.56,154.44 l -1.26,4.86 c -10.71,42.93 -22.86,91.53 -1.17,116.37 6.3,7.2 18.09,15.39 38.34,13.14 26.28,-2.97 43.29,-0.63 53.01,1.8 l 0.27,0.09 0.27,0.09 c 26.28,6.12 57.06,17.01 91.71,32.31 69.39,29.79 122.04,63.45 156.33,99.99 24.21,26.19 25.83,38.43 25.83,41.85 0,3.87 -0.72,5.31 -0.9,5.58 -0.18,0.18 -2.52,1.44 -9.9,0.9 l -77.58,-6.03 c -0.9,-0.18 -1.89,-0.45 -2.79,-0.45 l -253.98,-18.63 c -499.5,-38.79 -772.29,-259.92 -774.9,-262.08 -8.19,-6.75 -20.07,-6.03 -27.36,1.62 -7.2,7.65 -7.29,19.62 -0.09,27.36 313.65,339.3 755.37,371.25 813.78,374.04 l 1.35,0.18 499.32,35.64 h 40.91 c 22.18,-2.15 39.77,-8.2 53.23,-18.18 28.98,-21.15 39.15,-56.43 30.15,-104.94 -7.83,-42.03 -30.33,-84.33 -66.78,-125.64 -26.82,-30.6 -57.69,-57.15 -91.98,-79.38 142.02,64.35 278.1,104.22 405.18,118.35 66.96,7.65 132.12,8.01 193.77,1.26 -0.27,0.02 -0.55,0.03 -0.82,0.05 5.52,-0.29 10.56,-2.67 14.23,-6.8 4.23,-4.68 6.03,-11.61 4.86,-17.73 -0.63,-3.51 -2.25,-6.84 -4.59,-9.45 L 2794.86,1256.7 c -8.28,-9.45 -17.55,-10.35 -22.41,-9.99 -9.18,0.63 -17.1,5.85 -23.04,14.85 -22.41,31.32 -30.87,69.12 -25.2,112.14 3.33,25.47 10.8,49.86 22.23,73.17 -113.4,-54.72 -216.9,-117.99 -308.07,-188.82 -57.69,-44.91 -108.36,-91.8 -150.75,-139.5 -10.8,-12.15 -20.88,-24.3 -30.24,-36.36 1.89,-15.03 4.14,-31.86 6.75,-50.58 0.27,-2.07 0.18,-4.32 -0.18,-6.39 -1.53,-8.01 -6.57,-14.85 -15.39,-20.88 -3.24,-2.16 -7.11,-3.42 -11.07,-3.42 -9.81,-0.09 -23.22,2.34 -41.49,7.38 1.62,-1.53 3.06,-3.33 4.14,-5.4 2.52,-4.861 2.88,-10.529 0.99,-15.662 -3.15,-9 -5.22,-16.468 -6.48,-22.769 -1.8,-10.078 -2.79,-23.758 3.33,-31.321 6.66,-8.277 21.87,-10.347 33.03,-10.707 32.49,-0.179 75.33,11.52 126.81,34.559 21.69,10.441 64.44,33.211 126.99,67.77 9.27,5.4 17.19,4.41 22.59,2.34 5.58,-2.25 9.9,-6.57 12.06,-12.15 1.62,-4.14 2.79,-10.98 -1.44,-19.89 -4.77,-9.718 -17.46,-26.55 -72.99,-70.648 -43.87,-34.906 -93.22,-66.024 -146.73,-92.457 -23.5,-1.953 -46.26,-4.856 -68.3,-8.715 17.27,6.773 35.27,14.75 54.02,23.949 54.63,26.551 104.13,57.512 148.59,92.879 39.42,31.32 61.92,52.652 67.5,63.902 1.17,2.52 1.17,4.05 -0.18,4.59 -1.26,0.45 -3.15,0 -5.49,-1.35 -63.09,-34.829 -105.66,-57.599 -127.89,-68.22 -54.9,-24.66 -100.17,-36.809 -135.72,-36.539 -45.18,1.258 -63.72,23.129 -55.8,65.699 1.53,8.192 4.14,16.828 7.29,25.738 -58.77,17.642 -104.67,54.542 -137.61,110.882 -6.03,11.43 -12.51,25.47 -19.26,41.94 -47.97,-60.12 -77.67,-119.88 -88.74,-179.368 -3.6,-19.442 -5.13,-38.973 -4.68,-58.68 1.8,-39.422 22.05,-69.57 60.84,-90.543 35.64,-18.809 78.39,-26.277 128.16,-22.41 1.79,0.14 3.59,0.312 5.4,0.492 -17.28,-6.191 -33.96,-13.102 -50.06,-20.762 -34.51,2.313 -65.61,10.672 -92.95,25.039 m 877.95,777.332 c -140.85,-15.66 -291.06,-62.64 -450.54,-140.85 -75.06,-36.9 -143.1,-77.67 -204.39,-122.31 0,-57.78 5.94,-130.23 17.64,-217.53 0.72,-6.57 1.53,-14.13 2.52,-22.68 13.05,18.27 28.26,37.35 46.08,57.42 43.38,48.78 94.5,96.12 153.36,141.93 109.53,85.05 234.45,158.49 374.58,220.14 -7.65,-10.71 -12.33,-17.37 -14.22,-19.89 -23.49,-31.77 -37.53,-66.06 -42.39,-102.87 -5.04,-38.16 2.25,-70.74 21.69,-98.01 4.86,-7.38 9.54,-8.55 14.04,-3.42 l 271.8,308.52 -0.9,0.81 c -28.37,3.13 -57.33,4.69 -86.89,4.69 -33.37,0 -67.49,-1.99 -102.38,-5.95 m -627.84,-219.87 c 32.76,21.96 67.32,43.02 103.5,63 -33.57,-12.87 -67.86,-22.95 -102.6,-30.15 -0.27,-7.65 -0.63,-15.21 -0.63,-15.12 -0.18,-5.67 -0.27,-11.7 -0.27,-17.73 m 818.49,241.07 c -0.13,0 -0.25,0 -0.38,0.01 0.13,-0.01 0.25,-0.01 0.38,-0.01 m -1081.38,155.56 c -0.09,-0.9 -0.18,-1.71 -0.18,-2.61 0,1.08 0.18,2.16 0.36,3.24 l -0.18,-0.63 M 1216.22,825.258 c 5.44,2.527 10.94,5.156 16.51,7.902 54.63,26.551 104.22,57.512 148.59,92.879 39.42,31.32 62.01,52.652 67.59,63.992 1.17,2.43 1.17,3.957 -0.18,4.5 -1.35,0.449 -3.15,0 -5.49,-1.351 -63.09,-34.828 -105.75,-57.508 -127.98,-68.219 -54.81,-24.66 -100.08,-36.813 -135.63,-36.539 -45.18,1.258 -63.81,23.129 -55.8,65.609 8.46,45.539 41.04,100.169 97.65,163.709 43.38,48.87 94.5,96.21 153.36,142.02 109.53,85.05 234.36,158.49 374.49,220.14 -7.56,-10.71 -12.33,-17.37 -14.22,-19.89 -23.4,-31.77 -37.53,-66.06 -42.3,-102.96 -5.04,-38.07 2.16,-70.65 21.6,-97.92 4.95,-7.38 9.63,-8.55 14.13,-3.42 l 271.8,308.52 -0.9,0.81 c -60.39,6.66 -123.48,6.21 -189.27,-1.26 -140.85,-15.66 -291.06,-62.64 -450.54,-140.85 -117.18,-57.6 -217.53,-124.65 -301.14,-201.15 -98.818,-90.27 -156.42,-179.73 -172.978,-268.471 -3.602,-19.438 -5.223,-38.969 -4.684,-58.77 1.059,-24.332 9.219,-45.152 24.492,-62.457 -8.59,0.152 -17.136,0.356 -25.625,0.617 -11.511,17.746 -17.828,38.231 -18.843,61.391 -0.543,20.969 1.078,42.211 4.949,62.91 17.371,92.7 77.578,186.75 179.189,279.54 84.6,77.49 187.47,146.25 305.82,204.39 160.83,78.84 314.64,126.9 457.11,142.74 67.05,7.56 132.21,8.01 193.68,1.26 -0.24,0.02 -0.49,0.03 -0.73,0.04 5.4,-0.3 10.48,-2.66 14.14,-6.7 4.14,-4.59 6.03,-11.43 4.95,-17.55 -0.63,-3.6 -2.25,-7.02 -4.68,-9.72 l -271.62,-308.34 c -8.19,-9.45 -17.46,-10.35 -22.32,-9.99 -9.18,0.54 -17.1,5.76 -23.22,14.85 -22.32,31.32 -30.87,69.12 -25.11,112.14 3.24,25.38 10.71,49.86 22.23,73.17 -113.4,-54.72 -216.9,-117.99 -308.07,-188.82 -57.69,-44.91 -108.36,-91.8 -150.75,-139.59 -53.91,-60.48 -85.14,-112.318 -92.97,-153.99 -1.89,-10.168 -2.79,-23.758 3.33,-31.41 6.66,-8.192 21.78,-10.348 32.94,-10.622 32.58,-0.269 75.42,11.43 126.9,34.563 21.96,10.527 64.62,33.391 126.63,67.589 9.63,5.49 17.46,4.5 22.95,2.52 5.58,-2.25 9.81,-6.57 12.06,-12.15 1.62,-4.139 2.79,-10.979 -1.44,-19.799 -4.77,-9.723 -17.46,-26.551 -72.99,-70.742 -43.17,-34.434 -91.73,-65.035 -144.27,-91.188 -10.91,2.27 -22.05,4.289 -33.34,6.067 m 784.49,759.722 c -0.08,0 -0.16,0 -0.25,0 0.09,0 0.17,0 0.25,0"
         style="fill:#ffffff;fill-opacity:1;fill-rule:nonzero;stroke:none"
         id="path16"
         inkscape:connector-curvature="0" /><g
         id="g18"><g
           id="g20"
           clip-path="url(#clipPath24)"><path
             d="m 1992.87,818.129 c -38.79,20.973 -59.04,51.121 -60.84,90.543 -0.45,19.707 1.08,39.238 4.68,58.68 11.07,59.488 40.77,119.248 88.74,179.368 6.75,-16.47 13.23,-30.51 19.26,-41.94 32.94,-56.34 78.84,-93.24 137.61,-110.882 -3.15,-8.91 -5.76,-17.546 -7.29,-25.738 -7.92,-42.57 10.62,-64.441 55.8,-65.699 35.55,-0.27 80.82,11.879 135.72,36.539 22.23,10.621 64.8,33.391 127.89,68.22 2.34,1.35 4.23,1.8 5.49,1.35 1.35,-0.54 1.35,-2.07 0.18,-4.59 -5.58,-11.25 -28.08,-32.582 -67.5,-63.902 -44.46,-35.367 -93.96,-66.328 -148.59,-92.879 -18.75,-9.199 -36.75,-17.176 -54.02,-23.949 -36.55,-6.398 -71.1,-15.426 -103.57,-27.039 -1.81,-0.18 -3.61,-0.352 -5.4,-0.492 -8.49,-0.66 -16.78,-0.989 -24.86,-0.989 -39.29,0 -73.74,7.801 -103.3,23.399 m 231.21,279.001 c -11.7,87.3 -17.64,159.75 -17.64,217.53 61.29,44.64 129.33,85.41 204.39,122.31 159.48,78.21 309.69,125.19 450.54,140.85 65.79,7.47 128.88,7.92 189.27,1.26 l 0.9,-0.81 -271.8,-308.52 c -4.5,-5.13 -9.18,-3.96 -14.04,3.42 -19.44,27.27 -26.73,59.85 -21.69,98.01 4.86,36.81 18.9,71.1 42.39,102.87 1.89,2.52 6.57,9.18 14.22,19.89 -140.13,-61.65 -265.05,-135.09 -374.58,-220.14 -58.86,-45.81 -109.98,-93.15 -153.36,-141.93 -17.82,-20.07 -33.03,-39.15 -46.08,-57.42 -0.99,8.55 -1.8,16.11 -2.52,22.68"
             style="fill:#656d71;fill-opacity:1;fill-rule:nonzero;stroke:none"
             id="path26"
             inkscape:connector-curvature="0" /><path
             d="m 1992.87,818.129 c -38.79,20.973 -59.04,51.121 -60.84,90.543 -0.45,19.707 1.08,39.238 4.68,58.68 11.07,59.488 40.77,119.248 88.74,179.368 6.75,-16.47 13.23,-30.51 19.26,-41.94 32.94,-56.34 78.84,-93.24 137.61,-110.882 -3.15,-8.91 -5.76,-17.546 -7.29,-25.738 -7.92,-42.57 10.62,-64.441 55.8,-65.699 35.55,-0.27 80.82,11.879 135.72,36.539 22.23,10.621 64.8,33.391 127.89,68.22 2.34,1.35 4.23,1.8 5.49,1.35 1.35,-0.54 1.35,-2.07 0.18,-4.59 -5.58,-11.25 -28.08,-32.582 -67.5,-63.902 -44.46,-35.367 -93.96,-66.328 -148.59,-92.879 -18.75,-9.199 -36.75,-17.176 -54.02,-23.949 -36.55,-6.398 -71.1,-15.426 -103.57,-27.039 -1.81,-0.18 -3.61,-0.352 -5.4,-0.492 -8.49,-0.66 -16.78,-0.989 -24.86,-0.989 -39.29,0 -73.74,7.801 -103.3,23.399 m 231.21,279.001 c -11.7,87.3 -17.64,159.75 -17.64,217.53 61.29,44.64 129.33,85.41 204.39,122.31 159.48,78.21 309.69,125.19 450.54,140.85 65.79,7.47 128.88,7.92 189.27,1.26 l 0.9,-0.81 -271.8,-308.52 c -4.5,-5.13 -9.18,-3.96 -14.04,3.42 -19.44,27.27 -26.73,59.85 -21.69,98.01 4.86,36.81 18.9,71.1 42.39,102.87 1.89,2.52 6.57,9.18 14.22,19.89 -140.13,-61.65 -265.05,-135.09 -374.58,-220.14 -58.86,-45.81 -109.98,-93.15 -153.36,-141.93 -17.82,-20.07 -33.03,-39.15 -46.08,-57.42 -0.99,8.55 -1.8,16.11 -2.52,22.68"
             style="fill:url(#linearGradient34);fill-opacity:1;fill-rule:nonzero;stroke:none"
             id="path36"
             inkscape:connector-curvature="0" /><path
             d="m 1992.87,818.129 c -38.79,20.973 -59.04,51.121 -60.84,90.543 -0.45,19.707 1.08,39.238 4.68,58.68 11.07,59.488 40.77,119.248 88.74,179.368 6.75,-16.47 13.23,-30.51 19.26,-41.94 32.94,-56.34 78.84,-93.24 137.61,-110.882 -3.15,-8.91 -5.76,-17.546 -7.29,-25.738 -7.92,-42.57 10.62,-64.441 55.8,-65.699 35.55,-0.27 80.82,11.879 135.72,36.539 22.23,10.621 64.8,33.391 127.89,68.22 2.34,1.35 4.23,1.8 5.49,1.35 1.35,-0.54 1.35,-2.07 0.18,-4.59 -5.58,-11.25 -28.08,-32.582 -67.5,-63.902 -44.46,-35.367 -93.96,-66.328 -148.59,-92.879 -18.75,-9.199 -36.75,-17.176 -54.02,-23.949 -36.55,-6.398 -71.1,-15.426 -103.57,-27.039 -1.81,-0.18 -3.61,-0.352 -5.4,-0.492 -8.49,-0.66 -16.78,-0.989 -24.86,-0.989 -39.29,0 -73.74,7.801 -103.3,23.399 m 231.21,279.001 c -11.7,87.3 -17.64,159.75 -17.64,217.53 61.29,44.64 129.33,85.41 204.39,122.31 159.48,78.21 309.69,125.19 450.54,140.85 65.79,7.47 128.88,7.92 189.27,1.26 l 0.9,-0.81 -271.8,-308.52 c -4.5,-5.13 -9.18,-3.96 -14.04,3.42 -19.44,27.27 -26.73,59.85 -21.69,98.01 4.86,36.81 18.9,71.1 42.39,102.87 1.89,2.52 6.57,9.18 14.22,19.89 -140.13,-61.65 -265.05,-135.09 -374.58,-220.14 -58.86,-45.81 -109.98,-93.15 -153.36,-141.93 -17.82,-20.07 -33.03,-39.15 -46.08,-57.42 -0.99,8.55 -1.8,16.11 -2.52,22.68"
             style="fill:url(#linearGradient42);fill-opacity:1;fill-rule:nonzero;stroke:none"
             id="path44"
             inkscape:connector-curvature="0" /></g></g><g
         id="g46"><g
           id="g48"
           clip-path="url(#clipPath52)"><path
             d="m 1040.94,833.969 c -46.53,-2.035 -91.776,-2.66 -135.62,-1.887 -15.273,17.305 -23.433,38.125 -24.492,62.457 -0.539,19.801 1.082,39.332 4.684,58.77 16.558,88.741 74.16,178.201 172.978,268.471 83.61,76.5 183.96,143.55 301.14,201.15 159.48,78.21 309.69,125.19 450.54,140.85 65.79,7.47 128.88,7.92 189.27,1.26 l 0.9,-0.81 -271.8,-308.52 c -4.5,-5.13 -9.18,-3.96 -14.13,3.42 -19.44,27.27 -26.64,59.85 -21.6,97.92 4.77,36.9 18.9,71.19 42.3,102.96 1.89,2.52 6.66,9.18 14.22,19.89 -140.13,-61.65 -264.96,-135.09 -374.49,-220.14 -58.86,-45.81 -109.98,-93.15 -153.36,-142.02 -56.61,-63.54 -89.19,-118.17 -97.65,-163.709 -8.01,-42.48 10.62,-64.351 55.8,-65.609 35.55,-0.274 80.82,11.879 135.63,36.539 22.23,10.711 64.89,33.391 127.98,68.219 2.34,1.351 4.14,1.8 5.49,1.351 1.35,-0.543 1.35,-2.07 0.18,-4.5 -5.58,-11.34 -28.17,-32.672 -67.59,-63.992 -44.37,-35.367 -93.96,-66.328 -148.59,-92.879 -5.57,-2.746 -11.07,-5.375 -16.51,-7.902 -54.16,8.531 -112.6,11.453 -175.28,8.711"
             style="fill:#656d71;fill-opacity:1;fill-rule:nonzero;stroke:none"
             id="path54"
             inkscape:connector-curvature="0" /><path
             d="m 1040.94,833.969 c -46.53,-2.035 -91.776,-2.66 -135.62,-1.887 -15.273,17.305 -23.433,38.125 -24.492,62.457 -0.539,19.801 1.082,39.332 4.684,58.77 16.558,88.741 74.16,178.201 172.978,268.471 83.61,76.5 183.96,143.55 301.14,201.15 159.48,78.21 309.69,125.19 450.54,140.85 65.79,7.47 128.88,7.92 189.27,1.26 l 0.9,-0.81 -271.8,-308.52 c -4.5,-5.13 -9.18,-3.96 -14.13,3.42 -19.44,27.27 -26.64,59.85 -21.6,97.92 4.77,36.9 18.9,71.19 42.3,102.96 1.89,2.52 6.66,9.18 14.22,19.89 -140.13,-61.65 -264.96,-135.09 -374.49,-220.14 -58.86,-45.81 -109.98,-93.15 -153.36,-142.02 -56.61,-63.54 -89.19,-118.17 -97.65,-163.709 -8.01,-42.48 10.62,-64.351 55.8,-65.609 35.55,-0.274 80.82,11.879 135.63,36.539 22.23,10.711 64.89,33.391 127.98,68.219 2.34,1.351 4.14,1.8 5.49,1.351 1.35,-0.543 1.35,-2.07 0.18,-4.5 -5.58,-11.34 -28.17,-32.672 -67.59,-63.992 -44.37,-35.367 -93.96,-66.328 -148.59,-92.879 -5.57,-2.746 -11.07,-5.375 -16.51,-7.902 -54.16,8.531 -112.6,11.453 -175.28,8.711"
             style="fill:url(#linearGradient62);fill-opacity:1;fill-rule:nonzero;stroke:none"
             id="path64"
             inkscape:connector-curvature="0" /><path
             d="m 1040.94,833.969 c -46.53,-2.035 -91.776,-2.66 -135.62,-1.887 -15.273,17.305 -23.433,38.125 -24.492,62.457 -0.539,19.801 1.082,39.332 4.684,58.77 16.558,88.741 74.16,178.201 172.978,268.471 83.61,76.5 183.96,143.55 301.14,201.15 159.48,78.21 309.69,125.19 450.54,140.85 65.79,7.47 128.88,7.92 189.27,1.26 l 0.9,-0.81 -271.8,-308.52 c -4.5,-5.13 -9.18,-3.96 -14.13,3.42 -19.44,27.27 -26.64,59.85 -21.6,97.92 4.77,36.9 18.9,71.19 42.3,102.96 1.89,2.52 6.66,9.18 14.22,19.89 -140.13,-61.65 -264.96,-135.09 -374.49,-220.14 -58.86,-45.81 -109.98,-93.15 -153.36,-142.02 -56.61,-63.54 -89.19,-118.17 -97.65,-163.709 -8.01,-42.48 10.62,-64.351 55.8,-65.609 35.55,-0.274 80.82,11.879 135.63,36.539 22.23,10.711 64.89,33.391 127.98,68.219 2.34,1.351 4.14,1.8 5.49,1.351 1.35,-0.543 1.35,-2.07 0.18,-4.5 -5.58,-11.34 -28.17,-32.672 -67.59,-63.992 -44.37,-35.367 -93.96,-66.328 -148.59,-92.879 -5.57,-2.746 -11.07,-5.375 -16.51,-7.902 -54.16,8.531 -112.6,11.453 -175.28,8.711"
             style="fill:url(#linearGradient70);fill-opacity:1;fill-rule:nonzero;stroke:none"
             id="path72"
             inkscape:connector-curvature="0" /></g></g><path
         d="m 2570.61,1773.24 c -16.69,12.43 -43.55,17.19 -80.64,14.32 l -499.49,-35.61 -0.02,-0.17 c -41.37,-1.78 -488.74,-29.05 -801.86,-367.76 0,0 273.56,226.87 786.2,266.63 l 254,18.64 0.25,0.3 80.04,6.2 c 21.49,1.66 32.28,-7.1 32.34,-26.36 0.26,-14.25 -10.12,-32.76 -31.11,-55.49 -36.48,-38.84 -90.89,-73.78 -163.15,-104.82 -35.82,-15.81 -67.49,-26.93 -95,-33.41 l -0.23,-0.06 c -11.97,-3.02 -31.29,-5.52 -60.16,-2.31 -44.44,4.98 -25.87,-63.11 -14.28,-109.64 17.66,-59.01 34.91,-109.92 51.74,-151.77 7.92,-19.99 15.46,-36.57 22.48,-49.75 33.76,-57.87 81.19,-95.37 142.32,-112.48 20.1,-5.95 34.49,-8.85 43.31,-8.77 4.12,2.79 6.46,5.46 6.94,8 -6.51,47.46 -10.9,82.68 -13.2,105.58 -13.46,99.93 -19.22,180.51 -17.29,241.76 0.35,9.98 0.84,20.32 1.37,30.95 71.08,12.98 139.33,37.92 204.66,74.78 42.43,23.82 79.42,53.82 111.02,89.93 34.22,38.78 54.97,77.48 62.17,116.09 7.54,40.46 0.05,68.87 -22.41,85.22"
         style="fill:#b5242c;fill-opacity:1;fill-rule:nonzero;stroke:none"
         id="path74"
         inkscape:connector-curvature="0" /><path
         d="m 1809.36,0.03125 -77.4,56.25005 -77.49,-56.25005 c -1.71,-1.35156 -4.14,-1.35156 -5.85,0 -1.8,1.25781 -2.52,3.50781 -1.8,5.57813 l 29.52,90.99222 -77.4,56.3394 c -1.8,1.258 -2.52,3.508 -1.8,5.579 0.63,2.07 2.52,3.421 4.77,3.421 h 95.67 l 29.61,91.079 c 0.63,2.07 2.61,3.421 4.77,3.421 2.16,0 4.05,-1.351 4.77,-3.421 l 29.52,-91.079 h 95.76 c 2.16,0 4.05,-1.351 4.77,-3.421 0.63,-2.071 -0.09,-4.321 -1.8,-5.579 L 1787.49,96.6016 1817.1,5.60938 c 0.63,-2.07032 -0.09,-4.32032 -1.8,-5.57813 -0.9,-0.671875 -1.93,-1.011719 -2.97,-1.011719 -1.03,0 -2.07,0.339844 -2.97,1.011719 M 1772.73,174.809 c -0.27,2.972 -24.21,304.832 160.83,498.062 37.95,39.609 81.94,72.02 131.75,97.16 20.68,-2.91 42.69,-3.48 65.98,-1.672 48.51,3.782 105.75,21.782 170.19,53.461 7.99,3.879 15.88,7.864 23.68,11.946 29.65,1.519 60.41,1.597 92.24,0.203 341.1,-14.938 610.47,45.812 800.55,180.541 152.73,108.27 209.52,234.36 230.94,281.79 1.08,2.43 3.78,3.51 6.21,2.7 2.43,-0.81 3.87,-3.42 3.24,-5.85 -0.36,-1.44 -35.91,-143.37 -151.92,-283.95 -68.22,-82.622 -150.48,-148.591 -244.53,-196.29 -117.45,-59.582 -253.62,-90.449 -404.82,-91.711 -690.03,-6.027 -839.7,-196.648 -874.35,-546.48 -0.27,-2.61 -2.43,-4.5 -5.04,-4.5 -2.61,0 -4.68,1.98 -4.95,4.59"
         style="fill:#e7e8ec;fill-opacity:1;fill-rule:nonzero;stroke:none"
         id="path76"
         inkscape:connector-curvature="0" /><path
         d="m 2065.31,770.031 c 3.66,1.848 7.33,3.66 11.06,5.418 14.78,-0.98 30.18,-0.859 46.19,0.379 48.51,3.692 105.75,21.692 170.28,53.461 1.83,0.887 3.64,1.777 5.46,2.676 8.85,0.734 17.8,1.336 26.86,1.801 -7.8,-4.082 -15.69,-8.067 -23.68,-11.946 -64.44,-31.679 -121.68,-49.679 -170.19,-53.461 -8.9,-0.687 -17.61,-1.039 -26.14,-1.039 -13.78,0 -27.07,0.91 -39.84,2.711"
         style="fill:#dbdce1;fill-opacity:1;fill-rule:nonzero;stroke:none"
         id="path78"
         inkscape:connector-curvature="0" /><path
         d="m 2076.37,775.449 c 16.1,7.66 32.78,14.571 50.06,20.762 30.96,3.07 65.46,12.098 103.57,27.039 22.04,3.859 44.8,6.762 68.3,8.715 -1.82,-0.899 -3.63,-1.789 -5.46,-2.676 -64.53,-31.769 -121.77,-49.769 -170.28,-53.461 -8.91,-0.687 -17.63,-1.039 -26.16,-1.039 -6.8,0 -13.47,0.231 -20.03,0.66"
         style="fill:#e7e8ec;fill-opacity:1;fill-rule:nonzero;stroke:none"
         id="path80"
         inkscape:connector-curvature="0" /><g
         id="g82"><g
           id="g84"
           clip-path="url(#clipPath88)"><path
             d="m 2230,823.25 c -38.11,-14.941 -72.61,-23.969 -103.57,-27.039 32.47,11.613 67.02,20.641 103.57,27.039"
             style="fill:#9ea4ab;fill-opacity:1;fill-rule:nonzero;stroke:none"
             id="path90"
             inkscape:connector-curvature="0" /><path
             d="m 2230,823.25 c -38.11,-14.941 -72.61,-23.969 -103.57,-27.039 32.47,11.613 67.02,20.641 103.57,27.039"
             style="fill:url(#linearGradient98);fill-opacity:1;fill-rule:nonzero;stroke:none"
             id="path100"
             inkscape:connector-curvature="0" /><path
             d="m 2230,823.25 c -38.11,-14.941 -72.61,-23.969 -103.57,-27.039 32.47,11.613 67.02,20.641 103.57,27.039"
             style="fill:url(#linearGradient106);fill-opacity:1;fill-rule:nonzero;stroke:none"
             id="path108"
             inkscape:connector-curvature="0" /></g></g><path
         d="M 1675.62,174.719 C 1640.88,524.551 1491.3,715.172 801.27,721.199 650.07,722.461 513.898,753.328 396.449,812.91 302.398,860.609 220.141,926.578 151.922,1009.2 35.9102,1149.78 0.359375,1291.71 0,1293.15 v 2.33 c 0.398438,1.59 1.58984,2.97 3.23828,3.52 2.4336,0.81 5.13281,-0.27 6.21094,-2.7 C 30.7813,1248.87 87.6602,1122.78 240.391,1014.51 399.461,901.762 614,840.824 879.695,832.699 c 7.344,-11.32 16.801,-21.523 28.352,-30.59 9.281,-8.57 20.219,-16.25 32.812,-23.039 39.063,-20.609 85.771,-28.89 139.141,-24.75 48.6,3.782 105.84,21.782 170.28,53.461 5.26,2.555 10.48,5.153 15.66,7.793 104.66,-24.515 191.26,-72.203 258.75,-142.703 185.13,-193.23 161.19,-495.09 160.92,-498.062 -0.27,-2.61 -2.43,-4.59 -4.95,-4.59 -2.61,0 -4.77,1.89 -5.04,4.5"
         style="fill:#e7e8ec;fill-opacity:1;fill-rule:nonzero;stroke:none"
         id="path110"
         inkscape:connector-curvature="0" /><path
         d="m 940.859,779.07 c -12.593,6.789 -23.531,14.469 -32.812,23.039 7.215,-5.66 15.242,-10.89 24.082,-15.66 39.062,-20.519 85.861,-28.801 139.231,-24.66 48.51,3.781 105.75,21.691 170.19,53.461 2.68,1.301 5.35,2.617 8.01,3.941 5.51,-1.14 10.97,-2.347 16.38,-3.617 -5.18,-2.64 -10.4,-5.238 -15.66,-7.793 -64.44,-31.679 -121.68,-49.679 -170.28,-53.461 -8.9,-0.691 -17.61,-1.039 -26.14,-1.039 -42.59,0.008 -80.458,8.617 -113.001,25.789"
         style="fill:#dbdce1;fill-opacity:1;fill-rule:nonzero;stroke:none"
         id="path112"
         inkscape:connector-curvature="0" /><path
         d="m 932.129,786.449 c -22.992,12.41 -40.504,27.86 -52.434,46.25 8.489,-0.261 17.035,-0.465 25.625,-0.617 9.414,-10.664 21.528,-19.996 36.352,-27.992 35.637,-18.809 78.388,-26.192 128.158,-22.41 42.05,3.281 90.83,17.761 146.39,43.578 11.29,-1.778 22.43,-3.797 33.34,-6.067 -2.66,-1.324 -5.33,-2.64 -8.01,-3.941 -64.44,-31.77 -121.68,-49.68 -170.19,-53.461 -8.91,-0.687 -17.63,-1.039 -26.16,-1.039 -42.61,0 -80.528,8.602 -113.071,25.699"
         style="fill:#e7e8ec;fill-opacity:1;fill-rule:nonzero;stroke:none"
         id="path114"
         inkscape:connector-curvature="0" /><path
         d="m 1812.33,187.59 c -2.25,0.719 -3.69,2.969 -3.42,5.308 0.18,1.262 16.11,126.633 118.71,246.782 60.21,70.468 137.97,125.55 231.21,163.531 116.28,47.43 257.04,68.398 418.32,62.277 4.05,0 413.19,-4.047 584.91,132.211 1.71,1.352 4.14,1.442 6.03,0.09 1.8,-1.258 2.52,-3.687 1.71,-5.758 -0.9,-2.519 -23.22,-62.461 -102.87,-126.179 -73.08,-58.411 -210.42,-130.68 -449.64,-143.551 l -9.36,-0.539 c -457.29,-24.481 -628.38,-33.66 -789.66,-331.832 -0.91,-1.621 -2.59,-2.571 -4.4,-2.571 -0.51,0 -1.03,0.071 -1.54,0.231 m -172.26,2.34 C 1478.79,488.102 1307.7,497.281 850.41,521.762 l -9.359,0.539 c -239.223,12.871 -376.563,85.14 -449.641,143.551 -79.648,63.718 -101.969,123.66 -102.871,126.179 -0.809,2.071 -0.09,4.5 1.711,5.758 1.801,1.352 4.32,1.262 6.031,-0.09 C 468,661.441 877.051,665.488 881.102,665.488 c 161.278,6.121 302.128,-14.847 418.408,-62.277 93.24,-37.981 171,-93.063 231.21,-163.531 102.6,-120.149 118.53,-245.52 118.71,-246.782 0.27,-2.339 -1.17,-4.589 -3.51,-5.308 -0.49,-0.16 -1,-0.231 -1.5,-0.231 -1.79,0 -3.51,0.95 -4.35,2.571 m 207.36,1.351 c -1.98,1.438 -2.52,4.231 -1.26,6.391 0.36,0.719 40.32,70.109 121.23,136.976 74.7,61.743 200.88,134.102 377.19,128.161 291.51,-9.809 394.74,41.761 395.73,42.3 2.16,1.082 4.77,0.539 6.21,-1.347 1.53,-1.891 1.44,-4.59 -0.18,-6.391 -4.14,-4.68 -104.49,-114.48 -374.76,-117.359 -274.23,-2.883 -393.48,-68.403 -517.59,-188.371 -0.96,-0.961 -2.2,-1.43 -3.46,-1.43 -1.09,0 -2.19,0.359 -3.11,1.07 m -243.09,0.36 c -124.11,119.968 -243.36,185.488 -517.59,188.371 -270.27,2.879 -370.621,112.679 -374.762,117.359 -1.617,1.801 -1.707,4.5 -0.269,6.391 1.531,1.886 4.14,2.429 6.301,1.347 0.992,-0.539 104.218,-52.109 395.73,-42.3 176.31,5.941 302.4,-66.418 377.19,-128.161 80.91,-66.867 120.87,-136.257 121.23,-136.976 1.26,-2.16 0.72,-4.953 -1.26,-6.391 -0.92,-0.711 -2.02,-1.07 -3.12,-1.07 -1.25,0 -2.49,0.469 -3.45,1.43"
         style="fill:#e7e8ec;fill-opacity:1;fill-rule:nonzero;stroke:none"
         id="path116"
         inkscape:connector-curvature="0" /><g
         id="g118"><g
           id="g120"
           clip-path="url(#clipPath124)"><path
             d="m 941.672,804.09 c -14.824,7.996 -26.938,17.328 -36.352,27.992 43.844,-0.773 89.09,-0.148 135.62,1.887 62.68,2.742 121.12,-0.18 175.28,-8.711 -55.56,-25.817 -104.34,-40.297 -146.39,-43.578 -8.41,-0.641 -16.62,-0.961 -24.63,-0.961 -39.39,0 -73.915,7.742 -103.528,23.371"
             style="fill:#9ea4ab;fill-opacity:1;fill-rule:nonzero;stroke:none"
             id="path126"
             inkscape:connector-curvature="0" /><path
             d="m 941.672,804.09 c -14.824,7.996 -26.938,17.328 -36.352,27.992 43.844,-0.773 89.09,-0.148 135.62,1.887 62.68,2.742 121.12,-0.18 175.28,-8.711 -55.56,-25.817 -104.34,-40.297 -146.39,-43.578 -8.41,-0.641 -16.62,-0.961 -24.63,-0.961 -39.39,0 -73.915,7.742 -103.528,23.371"
             style="fill:url(#linearGradient134);fill-opacity:1;fill-rule:nonzero;stroke:none"
             id="path136"
             inkscape:connector-curvature="0" /><path
             d="m 941.672,804.09 c -14.824,7.996 -26.938,17.328 -36.352,27.992 43.844,-0.773 89.09,-0.148 135.62,1.887 62.68,2.742 121.12,-0.18 175.28,-8.711 -55.56,-25.817 -104.34,-40.297 -146.39,-43.578 -8.41,-0.641 -16.62,-0.961 -24.63,-0.961 -39.39,0 -73.915,7.742 -103.528,23.371"
             style="fill:url(#linearGradient142);fill-opacity:1;fill-rule:nonzero;stroke:none"
             id="path144"
             inkscape:connector-curvature="0" /></g></g><path
         d="m 1731.94,271.449 30.7,-94.508 h 99.38 l -80.39,-58.402 30.7,-94.4999 -80.39,58.4101 -80.39,-58.4101 30.71,94.4999 -80.39,58.402 h 99.37 l 30.7,94.508"
         style="fill:#ffffff;fill-opacity:1;fill-rule:nonzero;stroke:none"
         id="path146"
         inkscape:connector-curvature="0" /><path
         d="m 1777.72,195.211 c 0,0 -59.57,684.242 639.46,653.742 806.96,-35.215 990.62,363.987 1036.29,465.337 0,0 -137.03,-562.411 -796.48,-568.11 -659.46,-5.711 -842.16,-176.989 -879.27,-550.969"
         style="fill:#ffffff;fill-opacity:1;fill-rule:nonzero;stroke:none"
         id="path148"
         inkscape:connector-curvature="0" /><path
         d="m 1813.88,212.332 c 0,0 59,494.828 763.18,468.188 0,0 412.98,-5.711 588.07,133.218 0,0 -87.55,-241.699 -548.11,-266.449 -460.56,-24.738 -639.47,-32.34 -803.14,-334.957"
         style="fill:#ffffff;fill-opacity:1;fill-rule:nonzero;stroke:none"
         id="path150"
         inkscape:connector-curvature="0" /><path
         d="m 1850.51,215.199 c 0,0 155.59,274.051 493.88,262.633 296.89,-10.031 398.24,42.816 398.24,42.816 0,0 -99.92,-112.769 -371.12,-115.617 -271.2,-2.851 -392.53,-65.66 -521,-189.832"
         style="fill:#ffffff;fill-opacity:1;fill-rule:nonzero;stroke:none"
         id="path152"
         inkscape:connector-curvature="0" /><path
         d="m 1680.61,195.211 c 0,0 59.57,684.242 -639.46,653.742 C 234.195,813.738 50.5313,1212.94 4.85938,1314.29 c 0,0 137.03162,-562.411 796.48462,-568.11 C 1460.8,740.469 1643.5,569.191 1680.61,195.211"
         style="fill:#ffffff;fill-opacity:1;fill-rule:nonzero;stroke:none"
         id="path154"
         inkscape:connector-curvature="0" /><path
         d="m 1644.45,212.332 c 0,0 -59,494.828 -763.177,468.188 0,0 -412.988,-5.711 -588.074,133.218 0,0 87.547,-241.699 548.114,-266.449 460.557,-24.738 639.467,-32.34 803.137,-334.957"
         style="fill:#ffffff;fill-opacity:1;fill-rule:nonzero;stroke:none"
         id="path156"
         inkscape:connector-curvature="0" /><path
         d="m 1607.82,215.199 c 0,0 -155.59,274.051 -493.88,262.633 -296.893,-10.031 -398.241,42.816 -398.241,42.816 0,0 99.922,-112.769 371.121,-115.617 271.2,-2.851 392.53,-65.66 521,-189.832"
         style="fill:#ffffff;fill-opacity:1;fill-rule:nonzero;stroke:none"
         id="path158"
         inkscape:connector-curvature="0" /><path
         d="m 1731.94,291.449 30.7,-94.508 h 99.38 l -80.39,-58.402 30.7,-94.4999 -80.39,58.4099 -80.39,-58.4099 30.71,94.4999 -80.39,58.402 h 99.37 l 30.7,94.508"
         style="fill:#b4243a;fill-opacity:1;fill-rule:nonzero;stroke:none"
         id="path160"
         inkscape:connector-curvature="0" /><g
         id="g162"><g
           id="g164"
           clip-path="url(#clipPath168)"><path
             d="m 1777.72,215.211 c 0,0 -59.57,684.242 639.46,653.742 806.96,-35.215 990.62,363.987 1036.29,465.337 0,0 -137.03,-562.411 -796.48,-568.11 -659.46,-5.711 -842.16,-176.989 -879.27,-550.969"
             style="fill:#656d71;fill-opacity:1;fill-rule:nonzero;stroke:none"
             id="path170"
             inkscape:connector-curvature="0" /><path
             d="m 1777.72,215.211 c 0,0 -59.57,684.242 639.46,653.742 806.96,-35.215 990.62,363.987 1036.29,465.337 0,0 -137.03,-562.411 -796.48,-568.11 -659.46,-5.711 -842.16,-176.989 -879.27,-550.969"
             style="fill:url(#linearGradient178);fill-opacity:1;fill-rule:nonzero;stroke:none"
             id="path180"
             inkscape:connector-curvature="0" /><path
             d="m 1777.72,215.211 c 0,0 -59.57,684.242 639.46,653.742 806.96,-35.215 990.62,363.987 1036.29,465.337 0,0 -137.03,-562.411 -796.48,-568.11 -659.46,-5.711 -842.16,-176.989 -879.27,-550.969"
             style="fill:url(#linearGradient186);fill-opacity:1;fill-rule:nonzero;stroke:none"
             id="path188"
             inkscape:connector-curvature="0" /></g></g><g
         id="g190"><g
           id="g192"
           clip-path="url(#clipPath196)"><path
             d="m 1813.88,232.332 c 0,0 59,494.828 763.18,468.188 0,0 412.98,-5.711 588.07,133.218 0,0 -87.55,-241.699 -548.11,-266.449 -460.56,-24.738 -639.47,-32.34 -803.14,-334.957"
             style="fill:#656d71;fill-opacity:1;fill-rule:nonzero;stroke:none"
             id="path198"
             inkscape:connector-curvature="0" /><path
             d="m 1813.88,232.332 c 0,0 59,494.828 763.18,468.188 0,0 412.98,-5.711 588.07,133.218 0,0 -87.55,-241.699 -548.11,-266.449 -460.56,-24.738 -639.47,-32.34 -803.14,-334.957"
             style="fill:url(#linearGradient206);fill-opacity:1;fill-rule:nonzero;stroke:none"
             id="path208"
             inkscape:connector-curvature="0" /><path
             d="m 1813.88,232.332 c 0,0 59,494.828 763.18,468.188 0,0 412.98,-5.711 588.07,133.218 0,0 -87.55,-241.699 -548.11,-266.449 -460.56,-24.738 -639.47,-32.34 -803.14,-334.957"
             style="fill:url(#linearGradient214);fill-opacity:1;fill-rule:nonzero;stroke:none"
             id="path216"
             inkscape:connector-curvature="0" /></g></g><g
         id="g218"><g
           id="g220"
           clip-path="url(#clipPath224)"><path
             d="m 1850.51,235.199 c 0,0 155.59,274.051 493.88,262.633 296.89,-10.031 398.24,42.816 398.24,42.816 0,0 -99.92,-112.769 -371.12,-115.617 -271.2,-2.851 -392.53,-65.66 -521,-189.832"
             style="fill:#656d71;fill-opacity:1;fill-rule:nonzero;stroke:none"
             id="path226"
             inkscape:connector-curvature="0" /><path
             d="m 1850.51,235.199 c 0,0 155.59,274.051 493.88,262.633 296.89,-10.031 398.24,42.816 398.24,42.816 0,0 -99.92,-112.769 -371.12,-115.617 -271.2,-2.851 -392.53,-65.66 -521,-189.832"
             style="fill:url(#linearGradient234);fill-opacity:1;fill-rule:nonzero;stroke:none"
             id="path236"
             inkscape:connector-curvature="0" /><path
             d="m 1850.51,235.199 c 0,0 155.59,274.051 493.88,262.633 296.89,-10.031 398.24,42.816 398.24,42.816 0,0 -99.92,-112.769 -371.12,-115.617 -271.2,-2.851 -392.53,-65.66 -521,-189.832"
             style="fill:url(#linearGradient242);fill-opacity:1;fill-rule:nonzero;stroke:none"
             id="path244"
             inkscape:connector-curvature="0" /></g></g><g
         id="g246"><g
           id="g248"
           clip-path="url(#clipPath252)"><path
             d="m 1680.61,215.211 c 0,0 59.57,684.242 -639.46,653.742 C 234.195,833.738 50.5313,1232.94 4.85938,1334.29 c 0,0 137.03162,-562.411 796.48462,-568.11 C 1460.8,760.469 1643.5,589.191 1680.61,215.211"
             style="fill:#656d71;fill-opacity:1;fill-rule:nonzero;stroke:none"
             id="path254"
             inkscape:connector-curvature="0" /><path
             d="m 1680.61,215.211 c 0,0 59.57,684.242 -639.46,653.742 C 234.195,833.738 50.5313,1232.94 4.85938,1334.29 c 0,0 137.03162,-562.411 796.48462,-568.11 C 1460.8,760.469 1643.5,589.191 1680.61,215.211"
             style="fill:url(#linearGradient262);fill-opacity:1;fill-rule:nonzero;stroke:none"
             id="path264"
             inkscape:connector-curvature="0" /><path
             d="m 1680.61,215.211 c 0,0 59.57,684.242 -639.46,653.742 C 234.195,833.738 50.5313,1232.94 4.85938,1334.29 c 0,0 137.03162,-562.411 796.48462,-568.11 C 1460.8,760.469 1643.5,589.191 1680.61,215.211"
             style="fill:url(#linearGradient270);fill-opacity:1;fill-rule:nonzero;stroke:none"
             id="path272"
             inkscape:connector-curvature="0" /></g></g><g
         id="g274"><g
           id="g276"
           clip-path="url(#clipPath280)"><path
             d="m 1644.45,232.332 c 0,0 -59,494.828 -763.177,468.188 0,0 -412.988,-5.711 -588.074,133.218 0,0 87.547,-241.699 548.114,-266.449 460.557,-24.738 639.467,-32.34 803.137,-334.957"
             style="fill:#656d71;fill-opacity:1;fill-rule:nonzero;stroke:none"
             id="path282"
             inkscape:connector-curvature="0" /><path
             d="m 1644.45,232.332 c 0,0 -59,494.828 -763.177,468.188 0,0 -412.988,-5.711 -588.074,133.218 0,0 87.547,-241.699 548.114,-266.449 460.557,-24.738 639.467,-32.34 803.137,-334.957"
             style="fill:url(#linearGradient290);fill-opacity:1;fill-rule:nonzero;stroke:none"
             id="path292"
             inkscape:connector-curvature="0" /><path
             d="m 1644.45,232.332 c 0,0 -59,494.828 -763.177,468.188 0,0 -412.988,-5.711 -588.074,133.218 0,0 87.547,-241.699 548.114,-266.449 460.557,-24.738 639.467,-32.34 803.137,-334.957"
             style="fill:url(#linearGradient298);fill-opacity:1;fill-rule:nonzero;stroke:none"
             id="path300"
             inkscape:connector-curvature="0" /></g></g><g
         id="g302"><g
           id="g304"
           clip-path="url(#clipPath308)"><path
             d="m 1607.82,235.199 c 0,0 -155.59,274.051 -493.88,262.633 -296.893,-10.031 -398.241,42.816 -398.241,42.816 0,0 99.922,-112.769 371.121,-115.617 271.2,-2.851 392.53,-65.66 521,-189.832"
             style="fill:#656d71;fill-opacity:1;fill-rule:nonzero;stroke:none"
             id="path310"
             inkscape:connector-curvature="0" /><path
             d="m 1607.82,235.199 c 0,0 -155.59,274.051 -493.88,262.633 -296.893,-10.031 -398.241,42.816 -398.241,42.816 0,0 99.922,-112.769 371.121,-115.617 271.2,-2.851 392.53,-65.66 521,-189.832"
             style="fill:url(#linearGradient318);fill-opacity:1;fill-rule:nonzero;stroke:none"
             id="path320"
             inkscape:connector-curvature="0" /><path
             d="m 1607.82,235.199 c 0,0 -155.59,274.051 -493.88,262.633 -296.893,-10.031 -398.241,42.816 -398.241,42.816 0,0 99.922,-112.769 371.121,-115.617 271.2,-2.851 392.53,-65.66 521,-189.832"
             style="fill:url(#linearGradient326);fill-opacity:1;fill-rule:nonzero;stroke:none"
             id="path328"
             inkscape:connector-curvature="0" /></g></g></g></g></svg>